<svg xmlns="http://www.w3.org/2000/svg" width="40" height="40" viewBox="0 0 45 45">
          <defs>
            <style>
              .path-stroke {
                fill: #fff;
                stroke: #d9d9d9;
              }

              .bg-path {
                fill: #2f3639;
              }

              .c {
                stroke: none;
              }

              .d {
                fill: none;
              }
            </style>
          </defs>
          <g transform="translate(-369 -173)">
            <g class="path-stroke" transform="translate(369 173)">
              <rect class="c" width="45" height="45" rx="10" />
              <rect class="d" x="0.5" y="0.5" width="44" height="44" rx="9.5" />
            </g>
            <g transform="translate(355.43 185)">
              <g transform="translate(26.57)">
                <g transform="translate(0)">
                  <path class="bg-path"
                    d="M116.625,200.827A.826.826,0,0,0,115.8,200h-8.513a.826.826,0,1,0,0,1.653H115.8A.826.826,0,0,0,116.625,200.827Z"
                    transform="translate(-103.158 -191.735)" />
                  <path class="bg-path" d="M107.285,280a.826.826,0,1,0,0,1.653h5.17a.826.826,0,1,0,0-1.653Z"
                    transform="translate(-103.158 -268.429)" />
                  <path class="bg-path"
                    d="M32.64,19.505H29.876a1.655,1.655,0,0,1-1.653-1.653V3.306a1.655,1.655,0,0,1,1.653-1.653H40.037A1.655,1.655,0,0,1,41.69,3.306V8.389a.826.826,0,0,0,1.653,0V3.306A3.31,3.31,0,0,0,40.037,0H29.876A3.31,3.31,0,0,0,26.57,3.306V17.852a3.31,3.31,0,0,0,3.306,3.306H32.64a.826.826,0,0,0,0-1.653Z"
                    transform="translate(-26.57)" />
                  <path class="bg-path"
                    d="M252.731,272.749a2.482,2.482,0,0,0-3.506,0l-4.538,4.528a.827.827,0,0,0-.207.345l-.988,3.253a.826.826,0,0,0,1.011,1.037l3.336-.924a.826.826,0,0,0,.363-.212l4.528-4.52A2.482,2.482,0,0,0,252.731,272.749Zm-5.542,6.7-1.678.465L246,278.3l3.062-3.055,1.169,1.169Zm4.374-4.365-.16.16-1.169-1.169.16-.159a.827.827,0,0,1,1.169,1.168Z"
                    transform="translate(-234.494 -260.783)" />
                  <path class="bg-path" d="M115.8,120h-8.513a.826.826,0,0,0,0,1.653H115.8a.826.826,0,0,0,0-1.653Z"
                    transform="translate(-103.158 -115.041)" />
                </g>
              </g>
            </g>
          </g>
        </svg>