<svg xmlns="http://www.w3.org/2000/svg" width="47.127" height="59.028"
                                viewBox="0 0 89.4 111.75">
                                <path id="Icon_material-find-in-page" data-name="Icon material-find-in-page"
                                    d="M95.4,101.284V36.525L61.875,3h-44.7A11.16,11.16,0,0,0,6.056,14.175L6,103.575A11.16,11.16,0,0,0,17.119,114.75H84.225a11.074,11.074,0,0,0,6.649-2.235L66.121,87.762a27.94,27.94,0,1,1,12.516-23.3A27.818,27.818,0,0,1,74,79.828ZM33.937,64.462A16.762,16.762,0,1,0,50.7,47.7,16.74,16.74,0,0,0,33.937,64.462Z"
                                    transform="translate(-6 -3)" fill="#2668a8" />
                            </svg>