<svg xmlns="http://www.w3.org/2000/svg" width="84" height="112" viewBox="0 0 46.811 52.664">
                                <path id="Icon_metro-thumbs-up" data-name="Icon metro-thumbs-up"
                                    d="M39.734,21.7c-.389-1.039,10.354-10.632,4.09-18.406-1.466-1.817-6.439,8.7-13.5,13.467-3.9,2.627-12.964,8.221-12.964,11.314V48.091c0,3.719,14.377,7.657,25.3,7.657,4.005,0,9.807-25.091,9.807-29.076,0-4-12.349-3.932-12.733-4.974Zm-25.3.278c-1.925,0-8.777,1.17-8.777,9.137V45.3c0,7.961,6.852,8.839,8.777,8.839s-2.926-1.673-2.926-6.612V28.878c0-5.173,4.848-6.9,2.926-6.9Z"
                                    transform="translate(-5.656 -3.084)" fill="" />
                            </svg>