<svg xmlns="http://www.w3.org/2000/svg" width="91.636" height="112"
                                viewBox="0 0 51.395 63.251">
                                <path id="Icon_awesome-stopwatch" data-name="Icon awesome-stopwatch"
                                    d="M52.516,37.555A25.7,25.7,0,1,1,22.868,12.168V7.906H19.408a1.487,1.487,0,0,1-1.482-1.482V1.482A1.487,1.487,0,0,1,19.408,0H34.233a1.487,1.487,0,0,1,1.482,1.482V6.424a1.487,1.487,0,0,1-1.482,1.482H30.774v4.262a25.539,25.539,0,0,1,12.317,5.51l3.4-3.4a1.484,1.484,0,0,1,2.1,0l3.5,3.5a1.484,1.484,0,0,1,0,2.1l-3.632,3.632-.074.074A25.439,25.439,0,0,1,52.516,37.555ZM30.774,42V23.287A1.487,1.487,0,0,0,29.291,21.8H24.35a1.487,1.487,0,0,0-1.482,1.482V42a1.487,1.487,0,0,0,1.482,1.482h4.941A1.487,1.487,0,0,0,30.774,42Z"
                                    transform="translate(-1.125)" fill="#2668a8" />
                            </svg>