<svg xmlns="http://www.w3.org/2000/svg" version="1.0" width="24" height="24" viewBox="0 0 40.000000 27.000000" preserveAspectRatio="xMidYMid meet">

            <g transform="translate(0.000000,27.000000) scale(0.100000,-0.100000)" fill="#fff" stroke="none">
            <path d="M127 255 c-41 -14 -77 -43 -108 -87 -18 -25 -19 -30 -5 -57 49 -95 201 -136 288 -79 35 23 77 68 83 89 19 58 -102 150 -195 149 -14 -1 -42 -7 -63 -15z m153 -38 c24 -12 52 -35 64 -50 17 -24 18 -29 6 -53 -8 -14 -34 -37 -59 -52 -83 -49 -180 -31 -238 44 l-24 32 28 32 c33 40 95 69 144 70 20 0 55 -10 79 -23z"/>
            <path d="M141 184 c-28 -35 -26 -69 4 -99 46 -47 125 -19 125 45 0 25 -4 30 -25 30 -18 0 -26 7 -31 25 -8 34 -46 33 -73 -1z m61 -29 c11 -14 27 -25 35 -25 14 0 14 -3 -2 -20 -32 -36 -85 -20 -85 25 0 18 17 45 28 45 2 0 13 -11 24 -25z"/>
            </g>
            </svg>