<svg version="1.0" xmlns="http://www.w3.org/2000/svg"
            width="45" height="45" viewBox="0 0 90.000000 90.000000"
            preserveAspectRatio="xMidYMid meet">

            <g transform="translate(0.000000,90.000000) scale(0.100000,-0.100000)"
            fill="" stroke="none">
            <path d="M218 709 c-10 -5 -18 -18 -18 -27 0 -10 36 -69 80 -132 l80 -115 0
            -111 c0 -92 3 -116 18 -134 l17 -22 55 22 c30 12 61 28 68 37 7 11 12 50 12
            108 l0 91 75 107 c98 141 97 139 79 165 -15 21 -21 22 -232 22 -129 0 -224 -5
            -234 -11z m432 -35 c0 -3 -36 -57 -80 -120 l-80 -115 0 -94 0 -95 -36 -15
            c-20 -8 -38 -15 -40 -15 -2 0 -4 48 -4 106 l0 106 -85 124 -86 124 206 0 c113
            0 205 -3 205 -6z"/>
            </g>
          </svg>