<svg xmlns="http://www.w3.org/2000/svg" id="Layer_1" data-name="Layer 1" viewBox="0 0 735.2 157.42">
                <defs>
                  <style>
                    .cls-1 {
                      fill: #2668a9;
                    }

                    .cls-2 {
                      fill: #4fb648;
                    }

                    .cls-3 {
                      fill: #231f20;
                    }
                  </style>
                </defs>
                <path class="cls-1" d="M121.65,39.8a26.12,26.12,0,0,1-11.88,21.91h0A26.13,26.13,0,1,1,121.65,39.8Z" />
                <path class="cls-1"
                  d="M177.26,108.1A81,81,0,0,1,169,143.73H128.72a48.51,48.51,0,0,0,14.22-47.28l25.39-25.4A81.05,81.05,0,0,1,177.26,108.1Z" />
                <path class="cls-2"
                  d="M168.33,71.05l-72.5,72.5L52.26,100c.15-.84.33-1.68.54-2.51A44.4,44.4,0,0,1,70,72.11l.55-.4L95.83,97l28.31-28.3,23.44-23.44A81.94,81.94,0,0,1,168.33,71.05Z" />
                <path class="cls-1"
                  d="M63,143.73H22.63a81.33,81.33,0,0,1,.71-72.68A81.94,81.94,0,0,1,44.09,45.28L67.53,68.72a48.45,48.45,0,0,0-4.58,75Z" />
                <path class="cls-3"
                  d="M210.54,67.8h7.8l20.32,46.79L259,67.8h7.4v55.77h-5.2V74.42H261l-21.27,49.15h-2.28L215.89,74.42h-.15v49.15h-5.2Z" />
                <path class="cls-3"
                  d="M311.93,116.72a15.91,15.91,0,0,1-6.82,6,21.61,21.61,0,0,1-8.94,1.81,19.33,19.33,0,0,1-7.56-1.42,16.94,16.94,0,0,1-5.83-4,17.32,17.32,0,0,1-3.74-6.06,22.13,22.13,0,0,1-1.3-7.76,20.74,20.74,0,0,1,1.34-7.57,18,18,0,0,1,3.78-6,17.55,17.55,0,0,1,5.75-4,18,18,0,0,1,7.32-1.46,17.59,17.59,0,0,1,7.37,1.46,16.17,16.17,0,0,1,5.36,3.86A16.48,16.48,0,0,1,311.93,97a18.37,18.37,0,0,1,1.1,6.22v3.31H282.46a16.35,16.35,0,0,0,.59,3.82,13.67,13.67,0,0,0,6.39,8.31,13.13,13.13,0,0,0,6.81,1.58,15.18,15.18,0,0,0,7-1.74,12.62,12.62,0,0,0,5.2-4.72ZM308.3,102.3a10.87,10.87,0,0,0-1-4.57A12.4,12.4,0,0,0,304.64,94a12.8,12.8,0,0,0-4-2.56,12.94,12.94,0,0,0-4.92-.94,12,12,0,0,0-6.42,1.57,14,14,0,0,0-4.06,3.63,14.34,14.34,0,0,0-2.13,4,10.61,10.61,0,0,0-.63,2.64Z" />
                <path class="cls-3"
                  d="M351.87,108.29c0,1.79,0,3.39,0,4.81s.06,2.73.11,3.94.12,2.33.2,3.38.2,2.1.36,3.15h-4.42a34.5,34.5,0,0,1-.47-5.9h-.16a13.32,13.32,0,0,1-5.08,5.2,15.94,15.94,0,0,1-7.68,1.65,18.76,18.76,0,0,1-4.65-.59A12.26,12.26,0,0,1,326,122a9.7,9.7,0,0,1-4.1-8.31,9.72,9.72,0,0,1,2.13-6.62,13.16,13.16,0,0,1,5.24-3.66,24.76,24.76,0,0,1,6.61-1.58,61.19,61.19,0,0,1,6.19-.35h5.51V99.31q0-4.73-2.91-6.77a12.43,12.43,0,0,0-7.33-2.05,16.63,16.63,0,0,0-11.11,4.09l-2.75-3.23A16.81,16.81,0,0,1,330,87.53a23.33,23.33,0,0,1,7.4-1.3q6.61,0,10.56,3.11t3.94,10Zm-9.46-3a42,42,0,0,0-5.79.39,20.64,20.64,0,0,0-5,1.34,9.31,9.31,0,0,0-3.58,2.52,5.85,5.85,0,0,0-1.34,3.94,5.78,5.78,0,0,0,.75,3,6.38,6.38,0,0,0,1.93,2.13,9,9,0,0,0,2.64,1.26,10.24,10.24,0,0,0,2.95.44,15.09,15.09,0,0,0,6.22-1.11,10.5,10.5,0,0,0,3.9-2.87,10,10,0,0,0,2-4,18.84,18.84,0,0,0,.55-4.53V105.3Z" />
                <path class="cls-3"
                  d="M364.55,114.28a10.25,10.25,0,0,0,4.41,4.45,13,13,0,0,0,6.15,1.54,9.78,9.78,0,0,0,3-.48,9,9,0,0,0,2.68-1.34,7.21,7.21,0,0,0,1.93-2.08,5.26,5.26,0,0,0,.75-2.8,4.49,4.49,0,0,0-1.62-3.78,11.86,11.86,0,0,0-4-2,47,47,0,0,0-5.2-1.22,22,22,0,0,1-5.19-1.58,11.11,11.11,0,0,1-4-3,8,8,0,0,1-1.62-5.36A9.35,9.35,0,0,1,363,92.06a10.16,10.16,0,0,1,2.87-3.27,12.58,12.58,0,0,1,4-1.93,16.28,16.28,0,0,1,4.49-.63,16.92,16.92,0,0,1,7.76,1.66,11.43,11.43,0,0,1,5.08,5.2l-4.25,2.52a10,10,0,0,0-3.35-3.82,9.48,9.48,0,0,0-5.24-1.3,9.7,9.7,0,0,0-2.64.39A9.17,9.17,0,0,0,369.2,92a6.41,6.41,0,0,0-1.85,1.82,4.35,4.35,0,0,0-.75,2.52,4.21,4.21,0,0,0,1.61,3.62,12.32,12.32,0,0,0,4,1.85,46.47,46.47,0,0,0,5.2,1.14,21.16,21.16,0,0,1,5.2,1.54,10.62,10.62,0,0,1,4,3.07,8.9,8.9,0,0,1,1.61,5.71,10.73,10.73,0,0,1-1.06,4.93,10.17,10.17,0,0,1-2.91,3.5,12.91,12.91,0,0,1-4.22,2.13,17.24,17.24,0,0,1-5,.71,20.21,20.21,0,0,1-8.63-1.81,13,13,0,0,1-6-5.6Z" />
                <path class="cls-3"
                  d="M428.83,113.33c0,.69,0,1.51.08,2.48s.09,2,.12,3,.07,1.93.12,2.8.08,1.53.08,2H424.5q-.08-2-.12-3.93a12.51,12.51,0,0,0-.19-2.45H424a12.71,12.71,0,0,1-4.73,5.16,13.72,13.72,0,0,1-7.72,2.17,15.83,15.83,0,0,1-7-1.34,11,11,0,0,1-4.25-3.51,12.65,12.65,0,0,1-2.09-5,30.25,30.25,0,0,1-.55-5.83V87.18h4.72v21.43a23.28,23.28,0,0,0,.4,4.29,11.22,11.22,0,0,0,1.38,3.74,7.2,7.2,0,0,0,2.75,2.64,9.43,9.43,0,0,0,4.61,1,13.53,13.53,0,0,0,4.93-.91,10.46,10.46,0,0,0,4-2.76,13.17,13.17,0,0,0,2.68-4.65,19.66,19.66,0,0,0,1-6.57V87.18h4.72Z" />
                <path class="cls-3"
                  d="M441.83,97.42c0-.68,0-1.51-.08-2.48s-.09-2-.11-3-.07-1.93-.12-2.79-.08-1.54-.08-2h4.73c.05,1.36.09,2.68.11,3.94a12.19,12.19,0,0,0,.2,2.44,16.27,16.27,0,0,1,4.65-5.28,11.56,11.56,0,0,1,6.93-2,7.87,7.87,0,0,1,1.38.12c.45.08.91.17,1.38.28l-.55,4.65a5.77,5.77,0,0,0-1.82-.32,13.25,13.25,0,0,0-5.31,1,10,10,0,0,0-3.7,2.72,11.26,11.26,0,0,0-2.17,4.06,17.17,17.17,0,0,0-.71,5v19.85h-4.73Z" />
                <path class="cls-3"
                  d="M498.79,116.72a15.94,15.94,0,0,1-6.81,6,21.69,21.69,0,0,1-9,1.81,19.33,19.33,0,0,1-7.56-1.42,16.94,16.94,0,0,1-5.83-4,17.47,17.47,0,0,1-3.74-6.06,22.13,22.13,0,0,1-1.3-7.76,21,21,0,0,1,1.34-7.57,18,18,0,0,1,3.78-6,17.76,17.76,0,0,1,5.75-4,18,18,0,0,1,7.33-1.46,17.55,17.55,0,0,1,7.36,1.46,16.07,16.07,0,0,1,5.36,3.86A16.48,16.48,0,0,1,498.79,97a18.13,18.13,0,0,1,1.1,6.22v3.31H469.33a15.83,15.83,0,0,0,.59,3.82,13.43,13.43,0,0,0,2.16,4.53,13.74,13.74,0,0,0,4.22,3.78,13.15,13.15,0,0,0,6.81,1.58,15.12,15.12,0,0,0,7-1.74,12.56,12.56,0,0,0,5.2-4.72Zm-3.62-14.42a10.73,10.73,0,0,0-1-4.57A12.4,12.4,0,0,0,491.5,94a12.95,12.95,0,0,0-8.94-3.5,12.07,12.07,0,0,0-6.42,1.57,14,14,0,0,0-4.06,3.63,14.56,14.56,0,0,0-2.12,4,10.61,10.61,0,0,0-.63,2.64Z" />
                <path class="cls-3"
                  d="M542.28,117.19h-.16a12.25,12.25,0,0,1-2.76,3.27,16.88,16.88,0,0,1-3.58,2.29,18.24,18.24,0,0,1-4.06,1.34,21.55,21.55,0,0,1-4.17.43,20.56,20.56,0,0,1-7.73-1.42,17.42,17.42,0,0,1-6.06-4,18.4,18.4,0,0,1-3.94-6.06,21.48,21.48,0,0,1,0-15.36,18.45,18.45,0,0,1,3.94-6.07,17.56,17.56,0,0,1,6.06-4,21.1,21.1,0,0,1,11.9-1A17.74,17.74,0,0,1,535.78,88a16.45,16.45,0,0,1,3.58,2.28,12.25,12.25,0,0,1,2.76,3.27h.16V64H547v59.55h-4.72Zm.47-11.81a14.31,14.31,0,0,0-1.18-5.79,14.89,14.89,0,0,0-3.23-4.73,15.6,15.6,0,0,0-4.81-3.19,15,15,0,0,0-6-1.18,14.62,14.62,0,0,0-6,1.18A13.86,13.86,0,0,0,517,94.86a13.55,13.55,0,0,0-2.88,4.73,17.59,17.59,0,0,0,0,11.58,13.52,13.52,0,0,0,7.45,7.91,14.62,14.62,0,0,0,6,1.19,15,15,0,0,0,6-1.19,15.42,15.42,0,0,0,4.81-3.19,15,15,0,0,0,3.23-4.72A14.35,14.35,0,0,0,542.75,105.38Z" />
                <path class="cls-3"
                  d="M561.42,113.25a13.23,13.23,0,0,0,5.32,5.28,15.59,15.59,0,0,0,7.44,1.74,15.1,15.1,0,0,0,4.89-.79,12.46,12.46,0,0,0,4-2.21,10.29,10.29,0,0,0,2.68-3.42,10.12,10.12,0,0,0,1-4.53,8.73,8.73,0,0,0-1.22-4.81,9.85,9.85,0,0,0-3.27-3.11,24.11,24.11,0,0,0-4.61-2.09c-1.71-.58-3.47-1.15-5.28-1.73s-3.57-1.24-5.28-2a17.9,17.9,0,0,1-4.61-2.88,12.91,12.91,0,0,1-3.27-4.45A16,16,0,0,1,558,81.66a14.34,14.34,0,0,1,1.46-6.57,14,14,0,0,1,3.94-4.81,17.53,17.53,0,0,1,5.71-2.92,23.3,23.3,0,0,1,6.78-1A21.83,21.83,0,0,1,584.3,68,16,16,0,0,1,591,73.39l-4.49,3.23a13.13,13.13,0,0,0-4.61-4.13,13.35,13.35,0,0,0-6.26-1.38,16.94,16.94,0,0,0-4.81.67,11.87,11.87,0,0,0-4,2A9.51,9.51,0,0,0,564.18,77a9.83,9.83,0,0,0-1,4.64,9,9,0,0,0,2.13,6.42,15,15,0,0,0,5.32,3.55,54.14,54.14,0,0,0,6.93,2.28,34.08,34.08,0,0,1,6.93,2.64,15,15,0,0,1,5.32,4.61q2.13,3,2.13,8.16a15.16,15.16,0,0,1-1.42,6.69,14.78,14.78,0,0,1-3.82,4.93,16.65,16.65,0,0,1-5.56,3,21.08,21.08,0,0,1-6.53,1,26.21,26.21,0,0,1-10.17-1.93,18.47,18.47,0,0,1-7.95-6.5Z" />
                <path class="cls-3"
                  d="M602.39,64h4.72v39.7l18-16.46H632l-18.75,16.62,21,19.69H627l-19.93-19.22v19.22h-4.72Z" />
                <path class="cls-3"
                  d="M639.88,72.76a3.52,3.52,0,1,1,1,2.52A3.39,3.39,0,0,1,639.88,72.76Zm1.19,14.42h4.72v36.39h-4.72Z" />
                <path class="cls-3" d="M660,64h4.73v59.55H660Z" />
                <path class="cls-3" d="M679,64h4.72v59.55H679Z" />
                <path class="cls-3"
                  d="M697.15,114.28a10.25,10.25,0,0,0,4.41,4.45,13.1,13.1,0,0,0,6.15,1.54,9.73,9.73,0,0,0,3-.48,9,9,0,0,0,2.68-1.34,7.21,7.21,0,0,0,1.93-2.08,5.26,5.26,0,0,0,.75-2.8,4.49,4.49,0,0,0-1.62-3.78,11.9,11.9,0,0,0-4-2,48.15,48.15,0,0,0-5.2-1.22,22.09,22.09,0,0,1-5.2-1.58,11.11,11.11,0,0,1-4-3,8,8,0,0,1-1.62-5.36,9.35,9.35,0,0,1,1.11-4.65,10.16,10.16,0,0,1,2.87-3.27,12.58,12.58,0,0,1,4-1.93,16.28,16.28,0,0,1,4.49-.63,16.92,16.92,0,0,1,7.76,1.66,11.43,11.43,0,0,1,5.08,5.2l-4.25,2.52a10,10,0,0,0-3.35-3.82,9.48,9.48,0,0,0-5.24-1.3,9.7,9.7,0,0,0-2.64.39A9.31,9.31,0,0,0,701.8,92,6.41,6.41,0,0,0,700,93.8a4.35,4.35,0,0,0-.75,2.52,4.19,4.19,0,0,0,1.62,3.62,12.17,12.17,0,0,0,4,1.85,46.47,46.47,0,0,0,5.2,1.14,21.16,21.16,0,0,1,5.2,1.54,10.62,10.62,0,0,1,4,3.07,8.9,8.9,0,0,1,1.62,5.71,10.73,10.73,0,0,1-1.07,4.93,10.17,10.17,0,0,1-2.91,3.5,12.91,12.91,0,0,1-4.22,2.13,17.24,17.24,0,0,1-5,.71,20.21,20.21,0,0,1-8.63-1.81,13.06,13.06,0,0,1-6-5.6Z" />
              </svg>