<svg xmlns="http://www.w3.org/2000/svg" width="84" height="112" viewBox="0 0 84 112">
                                <path id="Icon_awesome-clipboard-list" data-name="Icon awesome-clipboard-list"
                                    d="M73.5,14H56a14,14,0,0,0-28,0H10.5A10.5,10.5,0,0,0,0,24.5v77A10.5,10.5,0,0,0,10.5,112h63A10.5,10.5,0,0,0,84,101.5v-77A10.5,10.5,0,0,0,73.5,14ZM21,92.75a5.25,5.25,0,1,1,5.25-5.25A5.237,5.237,0,0,1,21,92.75Zm0-21a5.25,5.25,0,1,1,5.25-5.25A5.237,5.237,0,0,1,21,71.75Zm0-21a5.25,5.25,0,1,1,5.25-5.25A5.237,5.237,0,0,1,21,50.75Zm21-42A5.25,5.25,0,1,1,36.75,14,5.237,5.237,0,0,1,42,8.75Zm28,80.5A1.755,1.755,0,0,1,68.25,91H36.75A1.755,1.755,0,0,1,35,89.25v-3.5A1.755,1.755,0,0,1,36.75,84h31.5A1.755,1.755,0,0,1,70,85.75Zm0-21A1.755,1.755,0,0,1,68.25,70H36.75A1.755,1.755,0,0,1,35,68.25v-3.5A1.755,1.755,0,0,1,36.75,63h31.5A1.755,1.755,0,0,1,70,64.75Zm0-21A1.755,1.755,0,0,1,68.25,49H36.75A1.755,1.755,0,0,1,35,47.25v-3.5A1.755,1.755,0,0,1,36.75,42h31.5A1.755,1.755,0,0,1,70,43.75Z"
                                    fill="#4eb448" />
                            </svg>