<svg xmlns="http://www.w3.org/2000/svg" width="47.127" height="59.028"
                                viewBox="0 0 47.127 59.028">
                                <g id="Group_2999" data-name="Group 2999" transform="translate(-255 -295.821)">
                                    <g id="Group_2998" data-name="Group 2998" transform="translate(255 295.821)">
                                        <rect id="Rectangle_608" data-name="Rectangle 608" width="47.127"
                                            height="59.028" rx="11" fill="#2668a8" />
                                    </g>
                                    <path id="Icon_material-attach-money" data-name="Icon material-attach-money"
                                        d="M21.262,21.485c-4.88-1.268-6.45-2.58-6.45-4.622,0-2.343,2.171-3.977,5.8-3.977,3.827,0,5.246,1.827,5.375,4.515h4.751a8.57,8.57,0,0,0-6.9-8.191V4.5h-6.45V9.144c-4.171.9-7.525,3.612-7.525,7.761,0,4.966,4.106,7.439,10.1,8.879,5.375,1.29,6.45,3.182,6.45,5.181,0,1.483-1.053,3.848-5.8,3.848-4.429,0-6.17-1.978-6.407-4.515H9.48c.258,4.708,3.784,7.353,7.912,8.234V43.2h6.45V38.577c4.192-.8,7.525-3.225,7.525-7.632C31.367,24.839,26.142,22.753,21.262,21.485Z"
                                        transform="translate(258.16 301.81)" fill="#fff" />
                                </g>
                            </svg>