<svg><defs><font horiz-adv-x="574"><font-face ascent="800" bbox="-450 -433 1425 1126" cap-height="708" descent="-200" panose-1="2 11 7 3 2 2 3 2 2 4" underline-position="-100" underline-thickness="50" unicode-range="U+000D-FE48" x-height="480"/><missing-glyph d="M222 117v67h56v-67h-56zM225 234l-2 17q0 56 13 81 7 13 18 27.5t28 31.5q32 30 41 47.5t9 35.5q0 36-22.5 60.5t-53.5 24.5-53.5-22-28.5-73l-50 8q7 72 44 104.5t91 32.5 89-35.5 35-95.5q0-32-12.5-58.5t-50.5-61.5q-37-33-43-52-6-20-6-72h-46zM462 50v617h-412v-617h412zM512 718v-718h-512v718h512z" horiz-adv-x="512"/><glyph d="M76 708h126v-708h-126v708zM693 196q0-42-13.5-81t-40-68.5-66.5-47-93-17.5q-84 0-137.5 39t-70.5 124l118 28q6-35 28.5-56t55.5-21q54 0 73.5 36.5t19.5 100.5v475h126v-512z" glyph-name="IJ" horiz-adv-x="767" unicode="&#x49;&#x4a;"/><glyph d="M70 480h120v-480h-120v480zM53 643q0 29 21.5 50.5t54.5 21.5 55.5-20.5 22.5-51.5-22.5-51.5-55.5-20.5-54.5 21.5-21.5 50.5zM414 480v-509q0-45-6-83.5t-23.5-67-49.5-44.5-83-16q-17 0-33 2t-32 7l9 104q10-2 19-3.5t19-1.5q22 0 34.5 9.5t18 24.5 6.5 33 1 35v510h120zM277 643q0 29 21.5 50.5t54.5 21.5 55.5-20.5 22.5-51.5-22.5-51.5-55.5-20.5-54.5 21.5-21.5 50.5z" glyph-name="ij" horiz-adv-x="484" unicode="&#x69;&#x6a;"/><glyph d="M68 480h114v-77h2q17 36 52 62.5t95 26.5q48 0 81.5-16t54.5-42 30-60 9-71v-303h-120v243q0 20-2 44.5t-10.5 46-26.5 36-49 14.5q-30 0-50.5-10t-34-27-19.5-39-6-46v-262h-120v480zM-2 708h122l-85-198h-97z" glyph-name="napostrophe" unicode="&#x22;n"/><glyph d="M111 378h-99v102h99v68q0 50 7 90.5t26.5 69.5 54.5 44.5 91 15.5q41 0 76-7l-8-102q-13 3-25 5t-25 2q-25 0-40-8t-23.5-21.5-11-31.5-2.5-38v-87h111v-102h-111v-378h-120v378zM420 480h120v-480h-120v480zM404 643q0 29 21.5 50.5t54.5 21.5 55.5-20.5 22.5-51.5-22.5-51.5-55.5-20.5-54.5 21.5-21.5 50.5z" glyph-name="fi" horiz-adv-x="593" unicode="&#x66;&#x69;"/><glyph d="M111 378h-99v102h99v68q0 50 7 90.5t26.5 69.5 54.5 44.5 91 15.5q41 0 76-7l-8-102q-13 3-25 5t-25 2q-25 0-40-8t-23.5-21.5-11-31.5-2.5-38v-87h111v-102h-111v-378h-120v378zM420 756h120v-756h-120v756z" glyph-name="fl" horiz-adv-x="593" unicode="&#x66;&#x6c;"/><glyph d="M222 117v67h56v-67h-56zM225 234l-2 17q0 56 13 81 7 13 18 27.5t28 31.5q32 30 41 47.5t9 35.5q0 36-22.5 60.5t-53.5 24.5-53.5-22-28.5-73l-50 8q7 72 44 104.5t91 32.5 89-35.5 35-95.5q0-32-12.5-58.5t-50.5-61.5q-37-33-43-52-6-20-6-72h-46zM462 50v617h-412v-617h412zM512 718v-718h-512v718h512z" glyph-name=".notdef" horiz-adv-x="512"/><glyph glyph-name=".null" horiz-adv-x="0"/><glyph glyph-name="nonmarkingreturn" horiz-adv-x="0" unicode="&#xd;"/><glyph glyph-name="space" horiz-adv-x="296" unicode="&#x20;"/><glyph d="M208 222h-120v486h120v-486zM68 70q0 32 23.5 55t56.5 23q32 0 56-22t24-54-23.5-55-56.5-23q-16 0-30.5 6t-25.5 16-17.5 24-6.5 30z" glyph-name="exclam" horiz-adv-x="296" unicode="&#x21;"/><glyph d="M120 708h102v-264h-102v264zM297 708h102v-264h-102v264z" glyph-name="quotedbl" horiz-adv-x="519" unicode="&#x22;"/><glyph d="M137 209h-90v84h101l18 122h-90v84h101l30 209h88l-30-209h103l30 209h87l-30-209h90v-84h-102l-17-122h90v-84h-100l-31-209h-87l30 209h-104l-30-209h-87zM253 415l-17-122h103l17 122h-103z" glyph-name="numbersign" horiz-adv-x="592" unicode="&#x23;"/><glyph d="M318 720h9q51 0 104.5-17.5t91.5-51.5l-83-93q-23 25-55 39.5t-67 14.5v-200l4-1q42-11 82.5-25t72-36.5 51-56.5 19.5-85q0-50-18-88.5t-49-66-72.5-43.5-89.5-21v-72h-54v71q-66-1-126.5 20t-106.5 69l91 93q24-34 62-52t80-22v211l-5 1q-42 12-80 26.5t-67.5 38-46.5 57-17 83.5q0 45 18 81t48 62.5 69 42.5 81 20v67h54v-66zM264 610q-35-6-62.5-29.5t-27.5-61.5q0-23 7.5-37t19.5-24 28.5-16.5 34.5-14.5v183zM318 96q21 4 39.5 12.5t32.5 21 22.5 30 8.5 39.5-9.5 37-24.5 25-33 17-36 13v-195z" glyph-name="dollar" horiz-adv-x="592" unicode="&#x24;"/><glyph d="M505 174q0 39 14.5 72.5t40 59 59 40 72.5 14.5 72.5-14.5 59-40 40-59 14.5-72.5-14.5-72.5-40-59-59-40-72.5-14.5-72.5 14.5-59 40-40 59-14.5 72.5zM781 174q0 38-26 64t-64 26-64-26-26-64 26-64 64-26 64 26 26 64zM30 534q0 39 14.5 72.5t40 59 59 40 72.5 14.5 72.5-14.5 59-40 40-59 14.5-72.5-14.5-72.5-40-59-59-40-72.5-14.5-72.5 14.5-59 40-40 59-14.5 72.5zM306 534q0 38-26 64t-64 26-64-26-26-64 26-64 64-26 64 26 26 64zM621 740l83-38-416-734-83 38z" glyph-name="percent" horiz-adv-x="907" unicode="&#x25;"/><glyph d="M574 167l153-167h-155l-75 81q-43-51-92-75t-117-24q-47 0-90.5 13.5t-76.5 40-53 65-20 89.5q0 36 12 66.5t32.5 56 48.5 45 60 31.5q-17 19-31.5 37t-25.5 37-17.5 41-6.5 48q0 43 16.5 76t44.5 54.5 65 32.5 77 11 76-10 63.5-30.5 44-52.5 16.5-75q0-33-12-60.5t-32-50-45.5-41-51.5-31.5l114-123 79 120h141zM325 618q-35 0-60-19.5t-25-51.5q0-14 6-27.5t16-27 21.5-25.5 23.5-23q15 8 32 18.5t31.5 24 23.5 29.5 9 36q0 29-23 47.5t-55 18.5zM277 318q-18-11-35-22.5t-31-25.5-22.5-32-8.5-41 9-43 24.5-34 35.5-22 43-8q41 0 72 22t58 48z" glyph-name="ampersand" horiz-adv-x="741" unicode="&#x26;"/><glyph d="M97 708h102v-264h-102v264z" glyph-name="quotesingle" horiz-adv-x="296" unicode="&#x27;"/><glyph d="M279 680l-1-4q-60-84-94-184.5t-34-203.5q0-104 34-204.5t94-184.5l-84-55q-69 95-107.5 208t-38.5 236q0 122 38.5 235.5t107.5 208.5z" glyph-name="parenleft" horiz-adv-x="296" unicode="&#x28;"/><glyph d="M17-104l1 4q60 84 94 184.5t34 203.5q0 104-34 204t-94 184l84 56q69-95 107.5-208t38.5-236q0-122-38.5-235.5t-107.5-208.5z" glyph-name="parenright" horiz-adv-x="296" unicode="&#x29;"/><glyph d="M274 566l135 44 26-80-136-44 86-117-69-50-86 118-84-115-67 51 86 113-137 47 26 80 136-47v142h84v-142z" glyph-name="asterisk" horiz-adv-x="463" unicode="&#x2a;"/><glyph d="M282 354v220h102v-220h220v-102h-220v-220h-102v220h-220v102h220z" glyph-name="plus" horiz-adv-x="666" unicode="&#x2b;"/><glyph d="M108 138h122l-85-264h-107z" glyph-name="comma" horiz-adv-x="296" unicode="&#x2c;"/><glyph d="M281 195h-247v102h247v-102z" glyph-name="hyphen" horiz-adv-x="315" unicode="&#x2d;"/><glyph d="M68 70q0 32 23.5 55t56.5 23q32 0 56-22t24-54-23.5-55-56.5-23q-16 0-30.5 6t-25.5 16-17.5 24-6.5 30z" glyph-name="period" horiz-adv-x="296" unicode="&#x2e;"/><glyph d="M74-48l-83 30 312 776 83-32z" glyph-name="slash" horiz-adv-x="389" unicode="&#x2f;"/><glyph d="M40 354q0 84 13.5 143.5t35.5 100 49.5 65 56 37 55 16.5 46.5 4 46.5-4 55-16.5 56-37 49.5-65 35.5-100 13.5-143.5-13.5-143.5-35.5-100-49.5-65-56-37-55-16.5-46.5-4-46.5 4-55 16.5-56 37-49.5 65-35.5 100-13.5 143.5zM160 354q0-33 4.5-76.5t18.5-82.5 41-66 72-27 72 27 41 66 18.5 82.5 4.5 76.5-4.5 76.5-18.5 82.5-41 66-72 27-72-27-41-66-18.5-82.5-4.5-76.5z" glyph-name="zero" horiz-adv-x="592" unicode="&#x30;"/><glyph d="M268 570l-133-123-70 83 214 178h109v-708h-120v570z" glyph-name="one" horiz-adv-x="592" unicode="&#x31;"/><glyph d="M59 127l275 266q12 12 25 25.5t23.5 28.5 17.5 31.5 7 34.5q0 22-8.5 39t-22.5 29-32.5 18.5-39.5 6.5q-45 0-74-26t-35-70l-126 10q4 49 23.5 86.5t50.5 62.5 72 38 89 13 89.5-12.5 72.5-37 49-62.5 18-89q0-67-30.5-115.5t-78.5-92.5l-219-203h328v-108h-474v127z" glyph-name="two" horiz-adv-x="592" unicode="&#x32;"/><glyph d="M222 423h31q26 0 50.5 3t44 13 31.5 29 12 51q0 41-28 67t-73 26q-36 0-64.5-20.5t-41.5-57.5l-127 34q12 39 34 68t52 47.5 66 27.5 75 9q46 0 87-12t72-35.5 49.5-59 18.5-82.5q0-57-32-101.5t-89-58.5v-2q68-10 103-58t35-114q0-51-19.5-90t-52.5-65.5-76.5-40-90.5-13.5q-44 0-83 9.5t-70.5 29.5-54.5 51.5-35 75.5l128 34q11-44 39-68t76-24q24 0 45.5 8t38 22.5 26 35 9.5 45.5q0 34-14.5 55.5t-37 33-50.5 15.5-55 4h-29v108z" glyph-name="three" horiz-adv-x="592" unicode="&#x33;"/><glyph d="M335 144h-301v119l285 445h136v-456h103v-108h-103v-144h-120v144zM335 538h-2l-177-286h179v286z" glyph-name="four" horiz-adv-x="592" unicode="&#x34;"/><glyph d="M505 600h-285l-3-141q14 5 35.5 7t40.5 2q52 0 95.5-16.5t74.5-47.5 48.5-74 17.5-97q0-57-19.5-102.5t-54-77-81.5-48.5-101-17q-85 0-144.5 40t-84.5 122l126 34q12-38 41-60t75-22q27 0 49.5 9t39 25.5 25.5 38.5 9 48q0 37-13.5 63t-36.5 42.5-53 24-63 7.5q-39 0-77.5-9t-70.5-25l7 382h403v-108z" glyph-name="five" horiz-adv-x="592" unicode="&#x35;"/><glyph d="M437 708l-170-262 2-2q11 6 29.5 9t36.5 3q47 0 86-18t67.5-49 44-72 15.5-87q0-55-19-100t-52.5-76.5-80-48.5-100.5-17q-56 0-102 16.5t-79.5 47.5-52 76-18.5 101 18.5 101.5 47.5 92.5l181 285h146zM170 231q0-27 10-50.5t27.5-41 41-27.5 50.5-10 50.5 10 41 27.5 27.5 41 10 50.5-10 50.5-27.5 41-41 27.5-50.5 10-50.5-10-41-27.5-27.5-41-10-50.5z" glyph-name="six" horiz-adv-x="592" unicode="&#x36;"/><glyph d="M42 708h481v-110l-283-598h-141l289 594h-346v114z" glyph-name="seven" horiz-adv-x="592" unicode="&#x37;"/><glyph d="M296 720q45 0 84.5-12.5t69-36 46.5-58 17-79.5q0-57-26.5-100t-80.5-59v-2q25-5 48.5-20.5t41.5-38 28.5-51.5 10.5-62q0-53-19-92.5t-51-66.5-76-40.5-93-13.5q-50 0-93.5 13.5t-75.5 40.5-51 66.5-19 92.5q0 33 10.5 62t28.5 51.5 41.5 38 48.5 20.5v2q-54 16-80.5 59t-26.5 100q0 45 17 79.5t46.5 58 69 36 84.5 12.5zM296 618q-46 0-71.5-28t-25.5-68q0-42 26-70.5t71-28.5q20 0 37.5 7.5t31 21 21 31.5 7.5 39q0 40-27.5 68t-69.5 28zM296 327q-24 0-46-8t-38-23-25.5-35.5-9.5-44.5q0-51 33.5-82.5t85.5-31.5 85.5 31.5 33.5 82.5q0 24-9.5 44.5t-25.5 35.5-38 23-46 8z" glyph-name="eight" horiz-adv-x="592" unicode="&#x38;"/><glyph d="M155 0l170 262-2 2q-11-6-29.5-9t-36.5-3q-47 0-86 18t-67.5 49-44 72-15.5 87q0 55 19 100t52.5 76.5 80 48.5 100.5 17q55 0 101.5-16.5t80-47.5 52-76 18.5-101-18.5-101.5-47.5-92.5l-181-285h-146zM422 477q0 27-10 50.5t-27.5 41-41 27.5-50.5 10-50.5-10-41-27.5-27.5-41-10-50.5 10-50.5 27.5-41 41-27.5 50.5-10 50.5 10 41 27.5 27.5 41 10 50.5z" glyph-name="nine" horiz-adv-x="592" unicode="&#x39;"/><glyph d="M68 70q0 32 23.5 55t56.5 23q32 0 56-22t24-54-23.5-55-56.5-23q-16 0-30.5 6t-25.5 16-17.5 24-6.5 30zM68 409q0 32 23.5 55t56.5 23q32 0 56-22t24-54-23.5-55-56.5-23q-16 0-30.5 6t-25.5 16-17.5 24-6.5 30z" glyph-name="colon" horiz-adv-x="296" unicode="&#x3a;"/><glyph d="M108 138h122l-85-264h-107zM68 409q0 32 23.5 55t56.5 23q32 0 56-22t24-54-23.5-55-56.5-23q-16 0-30.5 6t-25.5 16-17.5 24-6.5 30z" glyph-name="semicolon" horiz-adv-x="296" unicode="&#x3b;"/><glyph d="M80 267v72l506 225v-110l-338-151 338-151v-110z" glyph-name="less" horiz-adv-x="666" unicode="&#x3c;"/><glyph d="M604 444v-102h-542v102h542zM604 264v-102h-542v102h542z" glyph-name="equal" horiz-adv-x="666" unicode="&#x3d;"/><glyph d="M586 339v-72l-506-225v110l338 151-338 151v110z" glyph-name="greater" horiz-adv-x="666" unicode="&#x3e;"/><glyph d="M210 209v55q0 22 2.5 37.5t9 28 17 24 25.5 27.5l77 78q25 25 25 65 0 39-25.5 63.5t-64.5 24.5q-42 0-69-28.5t-31-69.5l-128 10q6 48 25 85.5t49.5 63.5 70.5 39.5 88 13.5q45 0 83.5-13t67-37.5 44.5-61 16-83.5q0-33-9-58t-24-46-34.5-40-41.5-40q-14-13-24-23t-16.5-20.5-9.5-24-3-32.5v-38h-120zM190 70q0 32 23.5 55t56.5 23q32 0 56-22t24-54-23.5-55-56.5-23q-16 0-30.5 6t-25.5 16-17.5 24-6.5 30z" glyph-name="question" horiz-adv-x="519" unicode="&#x3f;"/><glyph d="M401 456q-25 0-45-9.5t-33.5-26-20.5-38.5-7-47q0-8 1.5-23.5t9-30.5 24.5-26.5 48-11.5q28 0 47 11t30 28.5 15.5 39 4.5 42.5q0 40-18 66t-56 26zM727 133q-54-74-134.5-112.5t-172.5-38.5q-80 0-150.5 27.5t-123.5 76.5-83.5 117.5-30.5 149.5q0 80 30 148t82 118 121.5 78.5 148.5 28.5q66 0 129.5-21.5t113.5-63.5 80.5-103.5 30.5-140.5q0-53-12.5-92t-32-66-44-44-49-26-47-12.5-37.5-3.5q-42 0-60 17t-19 37h-2q-20-20-50-37t-78-17q-32 0-58.5 12.5t-45.5 34.5-29.5 53-10.5 68q0 44 14 84.5t39.5 72 62.5 50 84 18.5q40 0 66.5-13t41.5-44h2l8 45h94l-37-197-6-28t-3-29q0-18 5.5-27.5t21.5-9.5 31.5 8.5 27.5 27 19.5 46.5 7.5 67q0 60-19.5 105.5t-54 76.5-82.5 46.5-105 15.5q-62 0-113-21t-87.5-59-56.5-90-20-113q0-66 22-118t61.5-88 93.5-55.5 117-19.5q57 0 104.5 16t84.5 45h110z" glyph-name="at" horiz-adv-x="800" unicode="&#x40;"/><glyph d="M308 708h109l305-708h-144l-66 162h-307l-64-162h-141zM468 270l-109 288-111-288h220z" glyph-name="A" horiz-adv-x="722" unicode="&#x41;"/><glyph d="M79 708h276q40 0 79-9.5t69.5-31 49.5-55.5 19-82q0-60-34-99t-89-56v-2q33-4 61.5-18.5t48.5-37 31.5-52 11.5-63.5q0-58-23-96.5t-60.5-62-86-33.5-98.5-10h-255v708zM205 420h115q63 0 94.5 24.5t31.5 64.5q0 46-32.5 68.5t-104.5 22.5h-104v-180zM205 108h116q24 0 51.5 3t50.5 14 38 31.5 15 55.5q0 56-36.5 78t-113.5 22h-121v-204z" glyph-name="B" horiz-adv-x="648" unicode="&#x42;"/><glyph d="M565 542q-39 42-75.5 56t-73.5 14q-55 0-99.5-19.5t-76.5-54-49.5-80.5-17.5-99q0-57 17.5-105t49.5-83 76.5-55 99.5-20q43 0 83.5 20.5t75.5 65.5l104-74q-48-66-117-96t-147-30q-82 0-150.5 26.5t-118 75-77.5 116.5-28 151q0 85 28 154.5t77.5 118.5 118 75.5 150.5 26.5q72 0 133.5-25.5t114.5-86.5z" glyph-name="C" horiz-adv-x="685" unicode="&#x43;"/><glyph d="M79 708h279q70 0 135-21.5t115-65.5 80-110.5 30-156.5q0-91-34.5-157.5t-89-110-121-65-130.5-21.5h-264v708zM299 114q59 0 111.5 13.5t91.5 42 61.5 74 22.5 110.5q0 64-20 110t-55.5 74.5-84 42-106.5 13.5h-115v-480h94z" glyph-name="D" horiz-adv-x="759" unicode="&#x44;"/><glyph d="M79 708h469v-114h-343v-174h325v-114h-325v-192h361v-114h-487v708z" glyph-name="E" horiz-adv-x="611" unicode="&#x45;"/><glyph d="M79 708h457v-114h-331v-186h312v-114h-312v-294h-126v708z" glyph-name="F" unicode="&#x46;"/><glyph d="M708 52q-131-70-293-70-82 0-150.5 26.5t-118 75-77.5 116.5-28 151q0 85 28 154.5t77.5 118.5 118 75.5 150.5 26.5q81 0 152-19.5t127-69.5l-93-94q-34 33-82.5 51t-102.5 18q-55 0-99.5-19.5t-76.5-54-49.5-80.5-17.5-99q0-57 17.5-105t49.5-83 76.5-55 99.5-20q48 0 90.5 9t75.5 28v167h-145v114h271v-362z" glyph-name="G" horiz-adv-x="778" unicode="&#x47;"/><glyph d="M79 708h126v-282h331v282h126v-708h-126v312h-331v-312h-126v708z" glyph-name="H" horiz-adv-x="741" unicode="&#x48;"/><glyph d="M76 708h126v-708h-126v708z" glyph-name="I" horiz-adv-x="278" unicode="&#x49;"/><glyph d="M426 196q0-42-13.5-81t-40-68.5-66.5-47-93-17.5q-84 0-137.5 39t-70.5 124l118 28q6-35 28.5-56t55.5-21q54 0 73.5 36.5t19.5 100.5v475h126v-512z" glyph-name="J" horiz-adv-x="500" unicode="&#x4a;"/><glyph d="M79 708h126v-300h6l293 300h170l-331-327 353-381h-177l-307 348h-7v-348h-126v708z" glyph-name="K" horiz-adv-x="685" unicode="&#x4b;"/><glyph d="M79 708h126v-594h301v-114h-427v708z" glyph-name="L" horiz-adv-x="519" unicode="&#x4c;"/><glyph d="M82 708h192l189-496 191 496h190v-708h-120v588h-2l-215-588h-88l-215 588h-2v-588h-120v708z" glyph-name="M" horiz-adv-x="926" unicode="&#x4d;"/><glyph d="M79 708h167l343-526h2v526h126v-708h-160l-350 543h-2v-543h-126v708z" glyph-name="N" horiz-adv-x="796" unicode="&#x4e;"/><glyph d="M41 351q0 85 28 154.5t77.5 118.5 118 75.5 150.5 26.5q83 1 152-24.5t119-74.5 78-118 28-154q0-83-28-151t-78-117-119-76.5-152-28.5q-82 0-150.5 26.5t-118 75-77.5 116.5-28 151zM173 359q0-57 17.5-105t49.5-83 76.5-55 99.5-20 100 20 77 55 49.5 83 17.5 105q0 53-17.5 99t-49.5 80.5-77 54-100 19.5-99.5-19.5-76.5-54-49.5-80.5-17.5-99z" glyph-name="O" horiz-adv-x="833" unicode="&#x4f;"/><glyph d="M79 708h238q51 0 98.5-10t83.5-33.5 57.5-63 21.5-98.5q0-67-23-108t-62-63.5-90.5-30.5-107.5-8h-90v-293h-126v708zM281 401q27 0 56 2t53.5 12 40 30 15.5 56q0 33-14 52.5t-36 30-49 13.5-52 3h-90v-199h76z" glyph-name="P" horiz-adv-x="611" unicode="&#x50;"/><glyph d="M839 0h-412q-83 0-153.5 25.5t-122 73-81 116-29.5 154.5q0 78 29.5 143.5t80.5 113 118.5 74 143.5 26.5 143.5-26.5 118.5-74 80.5-113 29.5-143.5q0-56-13.5-98.5t-35.5-75-48.5-54.5-51.5-37v-2h203v-102zM410 612q-51 0-94.5-18.5t-75-51.5-49.5-78-18-98q0-54 18-100.5t50-80 75.5-52.5 95.5-19 96.5 19 76.5 52.5 50 80 18 100.5q0 53-18 98t-50 78-76.5 51.5-98.5 18.5z" glyph-name="Q" horiz-adv-x="852" unicode="&#x51;"/><glyph d="M79 708h246q51 0 98.5-9.5t84.5-32.5 59-62 22-99q0-77-42.5-129t-121.5-63l188-313h-152l-164 300h-92v-300h-126v708zM303 408q27 0 54 2.5t49.5 12 36.5 29 14 54.5q0 31-13 50t-34 28.5-46.5 12.5-49.5 3h-109v-192h98z" glyph-name="R" horiz-adv-x="630" unicode="&#x52;"/><glyph d="M426 556q-20 29-53.5 42.5t-70.5 13.5q-22 0-42.5-5t-37-16-26.5-28.5-10-41.5q0-36 25-55t62-33 81-27 81-36 62-61 25-101q0-57-21-99.5t-56.5-70.5-82.5-42-99-14q-66 0-127 22t-105 74l95 92q23-35 60.5-54.5t79.5-19.5q22 0 44 6t40 18 29 30.5 11 42.5q0 39-25 60t-62 35.5-81 27.5-81 35.5-62 60-25 100.5q0 55 22.5 95t59 66.5 83.5 39.5 96 13q56 0 108.5-17t94.5-56z" glyph-name="S" unicode="&#x53;"/><glyph d="M224 594h-217v114h560v-114h-217v-594h-126v594z" glyph-name="T" unicode="&#x54;"/><glyph d="M646 260q0-64-22-115.5t-60-87.5-90-55.5-113-19.5-113 19.5-90.5 55.5-60 87.5-21.5 115.5v448h126v-444q0-26 8-54.5t26.5-52.5 49-39.5 75.5-15.5 75.5 15.5 49 39.5 26.5 52.5 8 54.5v444h126v-448z" glyph-name="U" horiz-adv-x="722" unicode="&#x55;"/><glyph d="M-3 708h145l193-535 199 535h136l-286-708h-109z" glyph-name="V" horiz-adv-x="667" unicode="&#x56;"/><glyph d="M0 708h138l133-510h2l159 510h124l156-510h2l139 510h128l-206-708h-120l-164 539h-2l-164-539h-116z" glyph-name="W" horiz-adv-x="981" unicode="&#x57;"/><glyph d="M252 370l-236 338h159l167-262 165 262h153l-232-338 257-370h-160l-187 299-186-299h-152z" glyph-name="X" horiz-adv-x="685" unicode="&#x58;"/><glyph d="M252 303l-266 405h158l174-282 176 282h150l-266-405v-303h-126v303z" glyph-name="Y" horiz-adv-x="630" unicode="&#x59;"/><glyph d="M35 114l378 480h-372v114h529v-114l-381-480h387v-114h-541v114z" glyph-name="Z" horiz-adv-x="611" unicode="&#x5a;"/><glyph d="M258 654h-90v-732h90v-78h-192v888h192v-78z" glyph-name="bracketleft" horiz-adv-x="278" unicode="&#x5b;"/><glyph d="M86 758l312-776-83-30-312 774z" glyph-name="backslash" horiz-adv-x="389" unicode="&#x5c;"/><glyph d="M20-78h90v732h-90v78h192v-888h-192v78z" glyph-name="bracketright" horiz-adv-x="278" unicode="&#x5d;"/><glyph d="M69 343l223 365h82l223-365h-118l-147 239-145-239h-118z" glyph-name="asciicircum" horiz-adv-x="666" unicode="&#x5e;"/><glyph d="M0-125v50h500v-50h-500z" glyph-name="underscore" horiz-adv-x="500" unicode="&#x5f;"/><glyph d="M177 564h-94l-141 144h136z" glyph-name="grave" horiz-adv-x="260" unicode="&#x60;"/><glyph d="M368 66h-3q-26-41-66-59.5t-88-18.5q-33 0-64.5 9t-56 27-39.5 45-15 63q0 39 14 66.5t37.5 46 54.5 29.5 64.5 16.5 67.5 7 64 1.5h30v13q0 45-31 67.5t-79 22.5q-38 0-71-13.5t-57-36.5l-63 63q40 41 93.5 59t110.5 18q51 0 86-11.5t58-29.5 35.5-41.5 18-47.5 6.5-46.5 1-39.5v-276h-108v66zM361 215h-25q-25 0-56-2t-58.5-9.5-46.5-22-19-40.5q0-17 7.5-28.5t19.5-19.5 27-11.5 30-3.5q62 0 91.5 29.5t29.5 80.5v27z" glyph-name="a" horiz-adv-x="537" unicode="&#x61;"/><glyph d="M68 756h120v-337h3q9 12 23 24.5t34 23.5 46 18 60 7q51 0 94-19.5t73.5-53.5 47.5-80 17-99-16-99-47-80-75-53.5-99-19.5q-51 0-95 20t-70 64h-2v-72h-114v756zM466 240q0 28-9.5 54t-28 46-44.5 32-59 12-59-12-44.5-32-28-46-9.5-54 9.5-54 28-46 44.5-32 59-12 59 12 44.5 32 28 46 9.5 54z" glyph-name="b" horiz-adv-x="630" unicode="&#x62;"/><glyph d="M396 336q-21 22-44 35t-47 13q-33 0-59-12t-44.5-32-28-46-9.5-54 9.5-54 28-46 44.5-32 59-12q28 0 52 11.5t41 33.5l80-86q-18-18-41.5-31t-47.5-21-46-11.5-38-3.5q-54 0-102 18t-83 51-55.5 79.5-20.5 103.5 20.5 103.5 55.5 79.5 83 51 102 18q46 0 92.5-17.5t81.5-55.5z" glyph-name="c" horiz-adv-x="482" unicode="&#x63;"/><glyph d="M448 72h-2q-26-44-70-64t-95-20q-56 0-99.5 19.5t-74.5 53.5-47 80-16 99 17 99 47.5 80 73.5 53.5 94 19.5q34 0 60-7t46-18 34-23.5 23-24.5h3v337h120v-756h-114v72zM164 240q0-28 9.5-54t28-46 44.5-32 59-12 59 12 44.5 32 28 46 9.5 54-9.5 54-28 46-44.5 32-59 12-59-12-44.5-32-28-46-9.5-54z" glyph-name="d" horiz-adv-x="630" unicode="&#x64;"/><glyph d="M164 198q6-54 42-84t87-30q45 0 75.5 18.5t53.5 46.5l86-65q-42-52-94-74t-109-22q-54 0-102 18t-83 51-55.5 79.5-20.5 103.5 20.5 103.5 55.5 79.5 83 51 102 18q50 0 91.5-17.5t71-50.5 46-81.5 16.5-111.5v-33h-366zM410 288q-1 53-33 83.5t-89 30.5q-54 0-85.5-31t-38.5-83h246z" glyph-name="e" unicode="&#x65;"/><glyph d="M111 378h-99v102h99v68q0 50 7 90.5t26.5 69.5 54.5 44.5 91 15.5q41 0 76-7l-8-102q-13 3-25 5t-25 2q-25 0-40-8t-23.5-21.5-11-31.5-2.5-38v-87h111v-102h-111v-378h-120v378z" glyph-name="f" horiz-adv-x="352" unicode="&#x66;"/><glyph d="M562 480v-437q0-65-16-117.5t-49.5-89-84.5-56.5-121-20q-67 0-127 17t-111 62l72 98q36-33 75-51t90-18q43 0 72.5 12t47 33 25 50.5 7.5 65.5v35h-2q-26-35-69-52.5t-88-17.5q-54 0-98 19.5t-75.5 52.5-48.5 78-17 96q0 53 16 99t47 80 74.5 53.5 99.5 19.5q51 0 95-20t70-64h2v72h114zM306 384q-32 0-58-10.5t-44.5-29-29-45-10.5-58.5q0-29 10.5-54t29.5-44 45-30 56-11q33 0 59.5 11t45 29.5 28.5 44.5 10 56q0 63-38 102t-104 39z" glyph-name="g" horiz-adv-x="630" unicode="&#x67;"/><glyph d="M188 413h2q14 30 49.5 54.5t91.5 24.5q48 0 81.5-16t54.5-42 30-60 9-71v-303h-120v243q0 20-2 44.5t-10.5 46-26.5 36-49 14.5q-30 0-50.5-10t-34-27-19.5-39-6-46v-262h-120v756h120v-343z" glyph-name="h" unicode="&#x68;"/><glyph d="M70 480h120v-480h-120v480zM53 643q0 29 21.5 50.5t54.5 21.5 55.5-20.5 22.5-51.5-22.5-51.5-55.5-20.5-54.5 21.5-21.5 50.5z" glyph-name="i" horiz-adv-x="260" unicode="&#x69;"/><glyph d="M190 480v-509q0-45-6-83.5t-23.5-67-49.5-44.5-83-16q-17 0-33 2t-32 7l9 104q10-2 19-3.5t19-1.5q22 0 34.5 9.5t18 24.5 6.5 33 1 35v510h120zM53 643q0 29 21.5 50.5t54.5 21.5 55.5-20.5 22.5-51.5-22.5-51.5-55.5-20.5-54.5 21.5-21.5 50.5z" glyph-name="j" horiz-adv-x="260" unicode="&#x6a;"/><glyph d="M68 756h120v-475l185 199h154l-206-218 219-262h-159l-191 245h-2v-245h-120v756z" glyph-name="k" horiz-adv-x="537" unicode="&#x6b;"/><glyph d="M70 756h120v-756h-120v756z" glyph-name="l" horiz-adv-x="260" unicode="&#x6c;"/><glyph d="M63 480h114v-75h2q16 34 51.5 60.5t95.5 26.5q113 0 150-89 26 46 65 67.5t93 21.5q48 0 81-16t53.5-44 29.5-65.5 9-80.5v-286h-120v272q0 22-4 42.5t-14 36-27 24.5-44 9q-28 0-47.5-10.5t-32-28-18-40-5.5-45.5v-260h-120v286q0 45-19 71.5t-63 26.5q-30 0-50.5-10t-34-27-19.5-39-6-46v-262h-120v480z" glyph-name="m" horiz-adv-x="870" unicode="&#x6d;"/><glyph d="M68 480h114v-77h2q17 36 52 62.5t95 26.5q48 0 81.5-16t54.5-42 30-60 9-71v-303h-120v243q0 20-2 44.5t-10.5 46-26.5 36-49 14.5q-30 0-50.5-10t-34-27-19.5-39-6-46v-262h-120v480z" glyph-name="n" unicode="&#x6e;"/><glyph d="M44 240q0 57 20.5 103.5t55.5 79.5 83 51 102 18 102-18 83-51 55.5-79.5 20.5-103.5-20.5-103.5-55.5-79.5-83-51-102-18-102 18-83 51-55.5 79.5-20.5 103.5zM164 240q0-28 9.5-54t28-46 44.5-32 59-12 59 12 44.5 32 28 46 9.5 54-9.5 54-28 46-44.5 32-59 12-59-12-44.5-32-28-46-9.5-54z" glyph-name="o" horiz-adv-x="610" unicode="&#x6f;"/><glyph d="M68 480h114v-72h2q26 44 70 64t95 20q55 0 99-19.5t75-53.5 47-80 16-99-17-99-47.5-80-73.5-53.5-94-19.5q-34 0-60 7t-46 18-34 23.5-23 24.5h-3v-289h-120v708zM466 240q0 28-9.5 54t-28 46-44.5 32-59 12-59-12-44.5-32-28-46-9.5-54 9.5-54 28-46 44.5-32 59-12 59 12 44.5 32 28 46 9.5 54z" glyph-name="p" horiz-adv-x="630" unicode="&#x70;"/><glyph d="M562-228h-120v289h-3q-9-12-23-24.5t-34-23.5-46-18-60-7q-51 0-94 19.5t-73.5 53.5-47.5 80-17 99 16 99 47 80 74.5 53.5 99.5 19.5q51 0 95-20t70-64h2v72h114v-708zM164 240q0-28 9.5-54t28-46 44.5-32 59-12 59 12 44.5 32 28 46 9.5 54-9.5 54-28 46-44.5 32-59 12-59-12-44.5-32-28-46-9.5-54z" glyph-name="q" horiz-adv-x="630" unicode="&#x71;"/><glyph d="M68 480h120v-76h2q20 42 57 65t85 23q11 0 21.5-2t21.5-5v-116q-15 4-29.5 6.5t-28.5 2.5q-42 0-67.5-15.5t-39-35.5-18-40-4.5-30v-257h-120v480z" glyph-name="r" horiz-adv-x="389" unicode="&#x72;"/><glyph d="M324 347q-35 49-94 49-24 0-47-12t-23-39q0-22 19-32t48-17 62.5-14.5 62.5-23 48-42.5 19-74q0-43-18.5-72.5t-48-47.5-66.5-26-74-8q-56 0-103 16t-84 58l80 75q23-26 49.5-42.5t64.5-16.5q13 0 27 3t26 10 19.5 17.5 7.5 24.5q0 25-19 37t-48 19.5-62.5 14-62.5 21-48 40.5-19 72q0 40 16.5 69.5t43.5 48.5 62 28 71 9q48 0 95-16.5t76-56.5z" glyph-name="s" horiz-adv-x="444" unicode="&#x73;"/><glyph d="M12 378v102h99v139h120v-139h132v-102h-132v-210q0-36 13.5-57t53.5-21q16 0 35 3.5t30 11.5v-101q-19-9-46.5-12.5t-48.5-3.5q-48 0-78.5 10.5t-48 32-24 53.5-6.5 74v220h-99z" glyph-name="t" horiz-adv-x="389" unicode="&#x74;"/><glyph d="M506 0h-114v77h-2q-17-36-52-62.5t-95-26.5q-48 0-81.5 15.5t-54.5 42-30 60.5-9 71v303h120v-243q0-20 2-44.5t10.5-46 26-36 49.5-14.5q30 0 50.5 10t34 27 19.5 39 6 46v262h120v-480z" glyph-name="u" unicode="&#x75;"/><glyph d="M3 480h131l128-336h2l129 336h123l-189-480h-128z" glyph-name="v" horiz-adv-x="519" unicode="&#x76;"/><glyph d="M3 480h130l104-336h2l97 336h130l104-336h2l100 336h121l-163-480h-119l-114 328h-2l-101-328h-124z" glyph-name="w" horiz-adv-x="796" unicode="&#x77;"/><glyph d="M192 258l-166 222h146l96-144 104 144h137l-164-222 193-258h-146l-125 172-126-172h-142z" glyph-name="x" horiz-adv-x="537" unicode="&#x78;"/><glyph d="M3 480h132l134-333h2l120 333h125l-227-583q-13-34-28.5-59.5t-36.5-43-49.5-26-68.5-8.5q-47 0-92 12l15 108q14-5 29.5-8.5t31.5-3.5q22 0 37 4t25.5 12.5 17.5 22 15 32.5l23 57z" glyph-name="y" horiz-adv-x="519" unicode="&#x79;"/><glyph d="M34 111l257 271v2h-245v96h390v-109l-260-275h272v-96h-414v111z" glyph-name="z" horiz-adv-x="482" unicode="&#x7a;"/><glyph d="M0 332q10 0 26 3t31 10.5 26 21.5 11 35v198q0 34 14 58.5t34 41 42 24.5 38 8h91v-84h-55q-21 0-33.5-7t-19-17.5-8-22.5-1.5-23v-188q0-29-11-48t-26.5-30.5-32-16.5-28.5-6v-2q12-1 28.5-5t32-15 26.5-31.5 11-55.5v-182q0-11 1.5-23t8-22.5 19-17.5 33.5-7h55v-84h-91q-16 0-38 8t-42 24.5-34 41-14 58.5v191q0 24-11 39t-26 23.5-31 11.5-26 3v88z" glyph-name="braceleft" horiz-adv-x="278" unicode="&#x7b;"/><glyph d="M162 750v-1000h-102v1000h102z" glyph-name="bar" horiz-adv-x="222" unicode="&#x7c;"/><glyph d="M278 244q-11 0-27-3t-31-10.5-25.5-21.5-10.5-35v-198q0-34-14-58.5t-34-41-42-24.5-38-8h-91v84h55q21 0 33.5 7t19 17.5 8 22.5 1.5 23v188q0 29 11 48t26.5 30 32 16 28.5 7v2q-12 1-28.5 5t-32 15-26.5 31.5-11 55.5v182q0 11-1.5 23t-8 22.5-19 17.5-33.5 7h-55v84h91q16 0 38-8t42-24.5 34-41 14-58.5v-191q0-24 10.5-39t25.5-23.5 31-11.5 27-3v-88z" glyph-name="braceright" horiz-adv-x="278" unicode="&#x7d;"/><glyph d="M565 301q-11-16-23.5-31.5t-27-27.5-33-19.5-41.5-7.5q-28 0-52.5 9.5t-49.5 23.5q-24 14-52 24.5t-63 10.5q-17 0-30.5-6.5t-24-16-18-21.5-13.5-24l-36 84q8 16 19 31.5t26 27.5 34 19.5 43 7.5q29 0 58-9.5t58-22.5q28-12 54.5-24t46.5-12q15 0 28 6.5t23.5 16 19.5 21.5l18 24z" glyph-name="asciitilde" horiz-adv-x="666" unicode="&#x7e;"/><glyph glyph-name="uni00A0" horiz-adv-x="296" unicode="&#xa0;"/><glyph d="M88 265h120v-487h-120v487zM228 416q0-32-23.5-55t-56.5-23q-32 0-56 22t-24 54 23.5 55 56.5 23q16 0 30.5-6t25.5-16 17.5-24 6.5-30z" glyph-name="exclamdown" horiz-adv-x="296" unicode="&#xa1;"/><glyph d="M354 492q48-2 93.5-17t76.5-52l-77-78q-19 20-42.5 31.5t-50.5 13.5v-300q28 0 53.5 13t43.5 33l73-79q-32-35-77.5-51t-92.5-18v-72h-54v72q-51 4-92.5 25.5t-70 55-44 77.5-15.5 95q0 105 59.5 171t162.5 80v67h54v-67zM300 389q-28-6-48-19.5t-33.5-33-20-44.5-6.5-52q0-53 27-94.5t81-55.5v299z" glyph-name="cent" horiz-adv-x="592" unicode="&#xa2;"/><glyph d="M66 96h102v219h-102v84h102v100q0 37 13 76t41 71.5 72 53 106 20.5q54 0 104-15.5t87-48.5l-81-87q-22 20-48 31.5t-58 11.5q-28 0-49.5-10.5t-36.5-27.5-22.5-39-7.5-46v-90h162v-84h-162v-219h253v-96h-475v96z" glyph-name="sterling" horiz-adv-x="592" unicode="&#xa3;"/><glyph d="M36 155l49 49q-23 32-36 70t-13 81q0 42 13 80.5t36 70.5l-49 49 60 59 49-48q32 23 70 35.5t81 12.5 81-12.5 70-35.5l49 48 60-59-49-49q49-67 49-151 0-42-13-80.5t-36-70.5l49-49-60-60-49 49q-32-23-70-36t-81-13q-84 0-151 49l-49-49zM150 355q0-69 39.5-110.5t106.5-41.5 106.5 41.5 39.5 110.5-39.5 110-106.5 41-106.5-41-39.5-110z" glyph-name="currency" horiz-adv-x="592" unicode="&#xa4;"/><glyph d="M236 177h-170v78h170v48l-19 34h-151v78h108l-162 293h135l155-294 149 294h129l-162-293h108v-78h-151l-19-34v-48h170v-78h-170v-177h-120v177z" glyph-name="yen" horiz-adv-x="592" unicode="&#xa5;"/><glyph d="M162 675v-350h-102v350h102zM162 175v-350h-102v350h102z" glyph-name="brokenbar" horiz-adv-x="222" unicode="&#xa6;"/><glyph d="M398 566q-11 30-37 47t-58 17q-30 0-55.5-16t-25.5-50q0-28 22-46.5t55.5-34 72.5-31.5 72.5-38.5 55.5-54.5 22-79q0-42-24-76.5t-61-51.5q29-22 45-52.5t16-66.5q0-45-20-78.5t-52-55.5-72-32.5-79-10.5q-36 0-69 6.5t-62 20.5-52.5 37.5-38.5 58.5l107 52q11-38 44-55.5t70-17.5q15 0 31.5 3.5t30 11 22 20 8.5 30.5q0 28-22 46t-55.5 33-72.5 30.5-72.5 37-55.5 52-22 77.5q0 55 26.5 90t69.5 58q-31 20-48.5 48t-17.5 66q0 42 18 73t47 51.5 65.5 30.5 73.5 10q29 0 59-5t57.5-17 50-31.5 36.5-47.5zM362 194q18 10 32 30t14 40q0 19-7.5 32t-19 23-26 17.5-28.5 15.5l-89 42q-24-11-41-26t-17-44q0-18 8-31.5t20.5-23 27.5-17 29-13.5z" glyph-name="section" horiz-adv-x="593" unicode="&#xa7;"/><glyph d="M-50 636q0 29 21.5 50.5t54.5 21.5 55.5-20.5 22.5-51.5-22.5-51.5-55.5-20.5-54.5 21.5-21.5 50.5zM156 636q0 29 21.5 50.5t54.5 21.5 55.5-20.5 22.5-51.5-22.5-51.5-55.5-20.5-54.5 21.5-21.5 50.5z" glyph-name="dieresis" horiz-adv-x="260" unicode="&#xa8;"/><glyph d="M588 297q-5-38-21.5-66.5t-40.5-48-53.5-29.5-62.5-10q-47 0-84 16.5t-62.5 45.5-39 68-13.5 84q0 46 13 84.5t37.5 66.5 61.5 43.5 85 15.5q34 0 64-9t54-27 40-45.5 22-63.5h-94q-7 35-29 48t-49 13q-58 0-83.5-35t-25.5-89q0-28 7-52t20.5-42 33.5-28 46-10q32 0 55 15.5t25 54.5h94zM28 354q0 77 29.5 144.5t80 118 118 80 144.5 29.5 144.5-29.5 118-80 80-118 29.5-144.5-29.5-144.5-80-118-118-80-144.5-29.5-144.5 29.5-118 80-80 118-29.5 144.5zM124 354q0-60 21.5-112.5t58.5-91.5 87.5-61.5 108.5-22.5 108.5 22.5 87.5 61.5 58.5 91.5 21.5 112.5-21.5 112.5-58.5 91.5-87.5 61.5-108.5 22.5-108.5-22.5-87.5-61.5-58.5-91.5-21.5-112.5z" glyph-name="copyright" horiz-adv-x="800" unicode="&#xa9;"/><glyph d="M243 470h-2q-15-25-44.5-35t-58.5-10q-13 0-31.5 3.5t-36 13-30 27-12.5 44.5q0 35 20 55t49.5 30 64 12.5 64.5 2.5h17v8q0 17-20 25t-49 8q-25 0-45-8.5t-38-23.5l-43 53q26 23 62 34t76 11q72 0 103.5-29.5t31.5-90.5v-169h-78v39zM211 553q-12 0-29-1t-32.5-5-26.5-11-11-20q0-15 15.5-23t34.5-8q43 0 60 17.5t17 44.5v6h-28z" glyph-name="ordfeminine" horiz-adv-x="349" unicode="&#xaa;"/><glyph d="M142 248l116-175-76-51-152 226 152 224 75-51zM365 248l116-175-76-51-152 226 152 224 75-51z" glyph-name="guillemotleft" horiz-adv-x="519" unicode="&#xab;"/><glyph d="M502 342h-440v102h542v-297h-102v195z" glyph-name="logicalnot" horiz-adv-x="666" unicode="&#xac;"/><glyph glyph-name="uni00AD" horiz-adv-x="296" unicode="&#xad;"/><glyph d="M257 553h125q34 0 65.5-5t56-17.5 39.5-35 15-57.5q0-26-8-47.5t-20.5-36.5-28-24.5-31.5-11.5l100-155h-105l-89 150h-23v-150h-96v390zM352 391h47q9 0 20 1t20.5 5 16 12.5 6.5 23.5-6.5 23.5-16 12.5-20.5 5-20 1h-47v-84zM28 354q0 77 29.5 144.5t80 118 118 80 144.5 29.5 144.5-29.5 118-80 80-118 29.5-144.5-29.5-144.5-80-118-118-80-144.5-29.5-144.5 29.5-118 80-80 118-29.5 144.5zM124 354q0-60 21.5-112.5t58.5-91.5 87.5-61.5 108.5-22.5 108.5 22.5 87.5 61.5 58.5 91.5 21.5 112.5-21.5 112.5-58.5 91.5-87.5 61.5-108.5 22.5-108.5-22.5-87.5-61.5-58.5-91.5-21.5-112.5z" glyph-name="registered" horiz-adv-x="800" unicode="&#xae;"/><glyph d="M290 595h-320v78h320v-78z" glyph-name="macron" horiz-adv-x="260" unicode="&#xaf;"/><glyph d="M40 560q0 33 12.5 62t34.5 51 51 34.5 62 12.5 62-12.5 51-34.5 34.5-51 12.5-62-12.5-62-34.5-51-51-34.5-62-12.5-62 12.5-51 34.5-34.5 51-12.5 62zM118 560q0-34 24-58t58-24 58 24 24 58-24 58-58 24-58-24-24-58z" glyph-name="degree" horiz-adv-x="400" unicode="&#xb0;"/><glyph d="M283 574h102v-143h219v-102h-219v-143h-102v143h-221v102h221v143zM62 134h542v-102h-542v102z" glyph-name="plusminus" horiz-adv-x="666" unicode="&#xb1;"/><glyph d="M31 384l180 152q14 12 27.5 26t13.5 29q0 21-16.5 30t-39.5 9q-27 0-43.5-15.5t-18.5-38.5l-96 6q5 72 49.5 105t113.5 33q66 0 109.5-32t43.5-96q0-65-58-109l-140-108v-2h198v-84h-323v95z" glyph-name="twosuperior" horiz-adv-x="385" unicode="&#xb2;"/><glyph d="M146 552h32q13 0 26 1.5t22.5 6.5 15.5 14 6 23q0 16-14.5 24.5t-38.5 8.5q-23 0-39.5-11.5t-21.5-32.5l-103 20q7 32 23 53.5t37.5 35 48 19.5 55.5 6q30 0 58-7t49.5-21 34.5-35.5 13-50.5q0-35-20.5-60.5t-58.5-32.5v-2q42-5 64.5-34t22.5-66q0-32-13.5-56t-36-40-52.5-24-64-8q-62 0-106.5 27t-58.5 91l103 22q5-23 20-36.5t42-13.5 45.5 11 18.5 37q0 17-7.5 26.5t-19.5 14-28 5.5-32 1h-23v84z" glyph-name="threesuperior" horiz-adv-x="385" unicode="&#xb3;"/><glyph d="M182 708h136l-141-144h-94z" glyph-name="acute" horiz-adv-x="260" unicode="&#xb4;"/><glyph d="M188 480v-243q0-20 2-44.5t10.5-46 26-36 49.5-14.5q30 0 50.5 10t34 27 19.5 39 6 46v262h120v-480h-114v77h-2q-17-36-52-62.5t-95-26.5q-33 0-55 7v-223h-120v708h120z" glyph-name="mu" unicode="&#xb5;"/><glyph d="M246 338q-49 0-88.5 13.5t-67.5 38-43.5 58-15.5 72.5q0 50 17 86t47.5 58.5 73.5 33 95 10.5h269v-834h-90v762h-107v-762h-90v464z" glyph-name="paragraph" horiz-adv-x="600" unicode="&#xb6;"/><glyph d="M68 291q0 32 23.5 55t56.5 23q32 0 56-22t24-54-23.5-55-56.5-23q-16 0-30.5 6t-25.5 16-17.5 24-6.5 30z" glyph-name="periodcentered" horiz-adv-x="296" unicode="&#xb7;"/><glyph d="M177-60q22 0 43.5-2t39-10.5 28-25 10.5-45.5q0-27-13.5-46t-33.5-30-45-16-47-5q-56 0-106 28l22 46q38-20 82-20 8 0 18 2t18.5 6.5 14.5 13 6 20.5q0 20-17.5 28t-33.5 8q-10 0-19-2t-18-5l-27 25 62 90h58z" glyph-name="cedilla" horiz-adv-x="260" unicode="&#xb8;"/><glyph d="M179 606l-84-75-55 66 150 117h91v-425h-102v317z" glyph-name="onesuperior" horiz-adv-x="385" unicode="&#xb9;"/><glyph d="M197 425q-35 0-65.5 10.5t-53 30-35.5 46.5-12 60q0 33 13 60t35.5 46.5 52.5 30.5 65 11 66-11 54-30.5 36-46.5 13-60-13-60-36-46.5-54-30-66-10.5zM197 497q21 0 37 7t26.5 18 16 24 5.5 26-5.5 26.5-16 24.5-26.5 18-37 7-37-7-26.5-18-15.5-24.5-5-26.5 5-26 15.5-24 26.5-18 37-7z" glyph-name="ordmasculine" horiz-adv-x="397" unicode="&#xba;"/><glyph d="M377 246l-116 175 76 51 152-226-152-224-75 51zM154 246l-116 175 76 51 152-226-152-224-75 51z" glyph-name="guillemotright" horiz-adv-x="519" unicode="&#xbb;"/><glyph d="M168 606l-84-75-55 66 150 117h91v-425h-102v317zM705 85h-198v78l188 262h112v-256h53v-84h-53v-85h-102v85zM705 303l-1 2-95-136h96v134zM600 740l83-38-416-734-83 38z" glyph-name="onequarter" horiz-adv-x="889" unicode="&#xbc;"/><glyph d="M171 606l-84-75-55 66 150 117h91v-425h-102v317zM535 95l179 152q14 12 27.5 26t13.5 29q0 21-16.5 30t-39.5 9q-27 0-43.5-15.5t-18.5-38.5l-96 6q5 72 49.5 105t113.5 33q66 0 109.5-32t43.5-96q0-65-58-109l-140-108v-2h198v-84h-322v95zM602 740l83-38-416-734-83 38z" glyph-name="onehalf" horiz-adv-x="889" unicode="&#xbd;"/><glyph d="M715 335h-2l-118-176v-2h120v178zM142 552h32q13 0 26 1.5t22.5 6.5 15.5 14 6 23q0 16-14.5 24.5t-38.5 8.5q-23 0-39.5-11.5t-21.5-32.5l-103 20q7 32 23 53.5t37.5 35 48 19.5 55.5 6q30 0 58-7t49.5-21 34.5-35.5 13-50.5q0-35-20.5-60.5t-58.5-32.5v-2q42-5 64.5-34t22.5-66q0-32-13.5-56t-36-40-52.5-24-64-8q-62 0-106.5 27t-58.5 91l103 22q5-23 20-36.5t42-13.5 45.5 11 18.5 37q0 17-7.5 26.5t-19.5 14-28 5.5-32 1h-23v84zM712 85h-198v78l188 262h112v-256h52v-84h-52v-85h-102v85zM627 740l83-38-416-734-83 38z" glyph-name="threequarters" horiz-adv-x="889" unicode="&#xbe;"/><glyph d="M309 277v-55q0-23-2.5-38t-9-27.5-17-24-25.5-27.5l-77-78q-25-25-25-65 0-39 25.5-63.5t64.5-24.5q42 0 69 28.5t31 69.5l128-10q-6-48-25-85.5t-49.5-63.5-70.5-39.5-88-13.5q-45 0-83.5 12.5t-67 37.5-44.5 61.5-16 83.5q0 33 9 58t24 46 34.5 40 41.5 40q14 13 24 23t16.5 20.5 9.5 23.5 3 33v38h120zM329 416q0-32-23.5-55t-56.5-23q-32 0-56 22t-24 54 23.5 55 56.5 23q16 0 30.5-6t25.5-16 17.5-24 6.5-30z" glyph-name="questiondown" horiz-adv-x="519" unicode="&#xbf;"/><glyph d="M308 708h109l305-708h-144l-66 162h-307l-64-162h-141zM468 270l-109 288-111-288h220zM408 756h-94l-141 144h136z" glyph-name="Agrave" horiz-adv-x="722" unicode="&#xc0;"/><glyph d="M308 708h109l305-708h-144l-66 162h-307l-64-162h-141zM468 270l-109 288-111-288h220zM413 900h136l-141-144h-94z" glyph-name="Aacute" horiz-adv-x="722" unicode="&#xc1;"/><glyph d="M308 708h109l305-708h-144l-66 162h-307l-64-162h-141zM468 270l-109 288-111-288h220zM429 756l-69 90-69-90h-112l115 144h135l114-144h-114z" glyph-name="Acircumflex" horiz-adv-x="722" unicode="&#xc2;"/><glyph d="M308 708h109l305-708h-144l-66 162h-307l-64-162h-141zM468 270l-109 288-111-288h220zM177 760q4 24 11.5 47t20.5 40.5 32.5 28.5 47.5 11q20 0 40.5-6t39.5-12.5 35.5-12.5 28.5-6q20 0 30.5 12.5t15.5 29.5h66q-4-24-11.5-47t-20.5-40.5-32.5-28.5-47.5-11q-20 0-40.5 6t-39.5 13-35.5 13-28.5 6q-20 0-30.5-13t-15.5-30h-66z" glyph-name="Atilde" horiz-adv-x="722" unicode="&#xc3;"/><glyph d="M308 708h109l305-708h-144l-66 162h-307l-64-162h-141zM468 270l-109 288-111-288h220zM181 828q0 29 21.5 50.5t54.5 21.5 55.5-20.5 22.5-51.5-22.5-51.5-55.5-20.5-54.5 21.5-21.5 50.5zM387 828q0 29 21.5 50.5t54.5 21.5 55.5-20.5 22.5-51.5-22.5-51.5-55.5-20.5-54.5 21.5-21.5 50.5z" glyph-name="Adieresis" horiz-adv-x="722" unicode="&#xc4;"/><glyph d="M308 708h109l305-708h-144l-66 162h-307l-64-162h-141zM468 270l-109 288-111-288h220zM466 837q0-45-30-73.5t-75-28.5-75 28-30 73q0 22 8 41t22 32.5 33 21.5 42 8q45 0 75-28.5t30-73.5zM418 837q0 23-17 38.5t-40 15.5-40-15.5-17-38.5 17-38.5 40-15.5 40 15 17 39z" glyph-name="Aring" horiz-adv-x="722" unicode="&#xc5;"/><glyph d="M529 186h-268l-114-186h-153l453 708h496v-114h-288v-174h270v-114h-270v-192h300v-114h-426v186zM529 294v300h-15l-187-300h202z" glyph-name="AE" horiz-adv-x="1000" unicode="&#xc6;"/><glyph d="M565 542q-39 42-75.5 56t-73.5 14q-55 0-99.5-19.5t-76.5-54-49.5-80.5-17.5-99q0-57 17.5-105t49.5-83 76.5-55 99.5-20q43 0 83.5 20.5t75.5 65.5l104-74q-48-66-115-95.5t-145-30.5l-29-42q22 0 43.5-2t39-10.5 28-25 10.5-45.5q0-27-13.5-46t-33.5-30-45-16-47-5q-56 0-106 28l22 46q38-20 82-20 8 0 18 2t18.5 6.5 14.5 13 6 20.5q0 20-17.5 28t-33.5 8q-10 0-19-2t-18-5l-27 25 51 75q-72 8-131 38t-101.5 77.5-66 111-23.5 139.5q0 85 28 154.5t77.5 118.5 118 75.5 150.5 26.5q72 0 133.5-25.5t114.5-86.5z" glyph-name="Ccedilla" horiz-adv-x="685" unicode="&#xc7;"/><glyph d="M79 708h469v-114h-343v-174h325v-114h-325v-192h361v-114h-487v708zM353 756h-94l-141 144h136z" glyph-name="Egrave" horiz-adv-x="611" unicode="&#xc8;"/><glyph d="M79 708h469v-114h-343v-174h325v-114h-325v-192h361v-114h-487v708zM358 900h136l-141-144h-94z" glyph-name="Eacute" horiz-adv-x="611" unicode="&#xc9;"/><glyph d="M79 708h469v-114h-343v-174h325v-114h-325v-192h361v-114h-487v708zM374 756l-69 90-69-90h-112l115 144h135l114-144h-114z" glyph-name="Ecircumflex" horiz-adv-x="611" unicode="&#xca;"/><glyph d="M79 708h469v-114h-343v-174h325v-114h-325v-192h361v-114h-487v708zM126 828q0 29 21.5 50.5t54.5 21.5 55.5-20.5 22.5-51.5-22.5-51.5-55.5-20.5-54.5 21.5-21.5 50.5zM332 828q0 29 21.5 50.5t54.5 21.5 55.5-20.5 22.5-51.5-22.5-51.5-55.5-20.5-54.5 21.5-21.5 50.5z" glyph-name="Edieresis" horiz-adv-x="611" unicode="&#xcb;"/><glyph d="M76 708h126v-708h-126v708zM186 756h-94l-141 144h136z" glyph-name="Igrave" horiz-adv-x="278" unicode="&#xcc;"/><glyph d="M76 708h126v-708h-126v708zM191 900h136l-141-144h-94z" glyph-name="Iacute" horiz-adv-x="278" unicode="&#xcd;"/><glyph d="M76 708h126v-708h-126v708zM207 756l-69 90-69-90h-112l115 144h135l114-144h-114z" glyph-name="Icircumflex" horiz-adv-x="278" unicode="&#xce;"/><glyph d="M76 708h126v-708h-126v708zM-41 828q0 29 21.5 50.5t54.5 21.5 55.5-20.5 22.5-51.5-22.5-51.5-55.5-20.5-54.5 21.5-21.5 50.5zM165 828q0 29 21.5 50.5t54.5 21.5 55.5-20.5 22.5-51.5-22.5-51.5-55.5-20.5-54.5 21.5-21.5 50.5z" glyph-name="Idieresis" horiz-adv-x="278" unicode="&#xcf;"/><glyph d="M79 324h-66v84h66v300h279q70 0 135-21.5t115-65.5 80-110.5 30-156.5q0-91-34.5-157.5t-89-110-121-65-130.5-21.5h-264v324zM299 114q59 0 111.5 13.5t91.5 42 61.5 74 22.5 110.5q0 64-20 110t-55.5 74.5-84 42-106.5 13.5h-115v-186h216v-84h-216v-210h94z" glyph-name="Eth" horiz-adv-x="759" unicode="&#xd0;"/><glyph d="M79 708h167l343-526h2v526h126v-708h-160l-350 543h-2v-543h-126v708zM214 760q4 24 11.5 47t20.5 40.5 32.5 28.5 47.5 11q20 0 40.5-6t39.5-12.5 35.5-12.5 28.5-6q20 0 30.5 12.5t15.5 29.5h66q-4-24-11.5-47t-20.5-40.5-32.5-28.5-47.5-11q-20 0-40.5 6t-39.5 13-35.5 13-28.5 6q-20 0-30.5-13t-15.5-30h-66z" glyph-name="Ntilde" horiz-adv-x="796" unicode="&#xd1;"/><glyph d="M41 351q0 85 28 154.5t77.5 118.5 118 75.5 150.5 26.5q83 1 152-24.5t119-74.5 78-118 28-154q0-83-28-151t-78-117-119-76.5-152-28.5q-82 0-150.5 26.5t-118 75-77.5 116.5-28 151zM173 359q0-57 17.5-105t49.5-83 76.5-55 99.5-20 100 20 77 55 49.5 83 17.5 105q0 53-17.5 99t-49.5 80.5-77 54-100 19.5-99.5-19.5-76.5-54-49.5-80.5-17.5-99zM464 756h-94l-141 144h136z" glyph-name="Ograve" horiz-adv-x="833" unicode="&#xd2;"/><glyph d="M41 351q0 85 28 154.5t77.5 118.5 118 75.5 150.5 26.5q83 1 152-24.5t119-74.5 78-118 28-154q0-83-28-151t-78-117-119-76.5-152-28.5q-82 0-150.5 26.5t-118 75-77.5 116.5-28 151zM173 359q0-57 17.5-105t49.5-83 76.5-55 99.5-20 100 20 77 55 49.5 83 17.5 105q0 53-17.5 99t-49.5 80.5-77 54-100 19.5-99.5-19.5-76.5-54-49.5-80.5-17.5-99zM469 900h136l-141-144h-94z" glyph-name="Oacute" horiz-adv-x="833" unicode="&#xd3;"/><glyph d="M41 351q0 85 28 154.5t77.5 118.5 118 75.5 150.5 26.5q83 1 152-24.5t119-74.5 78-118 28-154q0-83-28-151t-78-117-119-76.5-152-28.5q-82 0-150.5 26.5t-118 75-77.5 116.5-28 151zM173 359q0-57 17.5-105t49.5-83 76.5-55 99.5-20 100 20 77 55 49.5 83 17.5 105q0 53-17.5 99t-49.5 80.5-77 54-100 19.5-99.5-19.5-76.5-54-49.5-80.5-17.5-99zM485 756l-69 90-69-90h-112l115 144h135l114-144h-114z" glyph-name="Ocircumflex" horiz-adv-x="833" unicode="&#xd4;"/><glyph d="M41 351q0 85 28 154.5t77.5 118.5 118 75.5 150.5 26.5q83 1 152-24.5t119-74.5 78-118 28-154q0-83-28-151t-78-117-119-76.5-152-28.5q-82 0-150.5 26.5t-118 75-77.5 116.5-28 151zM173 359q0-57 17.5-105t49.5-83 76.5-55 99.5-20 100 20 77 55 49.5 83 17.5 105q0 53-17.5 99t-49.5 80.5-77 54-100 19.5-99.5-19.5-76.5-54-49.5-80.5-17.5-99zM233 760q4 24 11.5 47t20.5 40.5 32.5 28.5 47.5 11q20 0 40.5-6t39.5-12.5 35.5-12.5 28.5-6q20 0 30.5 12.5t15.5 29.5h66q-4-24-11.5-47t-20.5-40.5-32.5-28.5-47.5-11q-20 0-40.5 6t-39.5 13-35.5 13-28.5 6q-20 0-30.5-13t-15.5-30h-66z" glyph-name="Otilde" horiz-adv-x="833" unicode="&#xd5;"/><glyph d="M41 351q0 85 28 154.5t77.5 118.5 118 75.5 150.5 26.5q83 1 152-24.5t119-74.5 78-118 28-154q0-83-28-151t-78-117-119-76.5-152-28.5q-82 0-150.5 26.5t-118 75-77.5 116.5-28 151zM173 359q0-57 17.5-105t49.5-83 76.5-55 99.5-20 100 20 77 55 49.5 83 17.5 105q0 53-17.5 99t-49.5 80.5-77 54-100 19.5-99.5-19.5-76.5-54-49.5-80.5-17.5-99zM237 828q0 29 21.5 50.5t54.5 21.5 55.5-20.5 22.5-51.5-22.5-51.5-55.5-20.5-54.5 21.5-21.5 50.5zM443 828q0 29 21.5 50.5t54.5 21.5 55.5-20.5 22.5-51.5-22.5-51.5-55.5-20.5-54.5 21.5-21.5 50.5z" glyph-name="Odieresis" horiz-adv-x="833" unicode="&#xd6;"/><glyph d="M333 374l182 182 70-70-181-181 185-186-74-74-183 181-181-181-74 73 185 182-184 186 72 71z" glyph-name="multiply" horiz-adv-x="666" unicode="&#xd7;"/><glyph d="M559 567q-62 45-143 45-55 0-99.5-19.5t-76.5-54-49.5-80.5-17.5-99q0-47 12-88t34-74zM264 148q31-25 69-38.5t83-13.5q55 0 100 20t77 55 49.5 83 17.5 105q0 97-54 162zM781 712l-86-94q47-49 72-115.5t25-147.5q0-83-28-151t-78-117-119-76.5-152-28.5q-69 0-129 19.5t-107 54.5l-85-92-50 43 87 94q-43 48-66.5 111t-23.5 139q0 85 28 154.5t77.5 118.5 118 75.5 150.5 26.5q67 2 124.5-15.5t105.5-49.5l87 94z" glyph-name="Oslash" horiz-adv-x="833" unicode="&#xd8;"/><glyph d="M646 260q0-64-22-115.5t-60-87.5-90-55.5-113-19.5-113 19.5-90.5 55.5-60 87.5-21.5 115.5v448h126v-444q0-26 8-54.5t26.5-52.5 49-39.5 75.5-15.5 75.5 15.5 49 39.5 26.5 52.5 8 54.5v444h126v-448zM408 756h-94l-141 144h136z" glyph-name="Ugrave" horiz-adv-x="722" unicode="&#xd9;"/><glyph d="M646 260q0-64-22-115.5t-60-87.5-90-55.5-113-19.5-113 19.5-90.5 55.5-60 87.5-21.5 115.5v448h126v-444q0-26 8-54.5t26.5-52.5 49-39.5 75.5-15.5 75.5 15.5 49 39.5 26.5 52.5 8 54.5v444h126v-448zM413 900h136l-141-144h-94z" glyph-name="Uacute" horiz-adv-x="722" unicode="&#xda;"/><glyph d="M646 260q0-64-22-115.5t-60-87.5-90-55.5-113-19.5-113 19.5-90.5 55.5-60 87.5-21.5 115.5v448h126v-444q0-26 8-54.5t26.5-52.5 49-39.5 75.5-15.5 75.5 15.5 49 39.5 26.5 52.5 8 54.5v444h126v-448zM429 756l-69 90-69-90h-112l115 144h135l114-144h-114z" glyph-name="Ucircumflex" horiz-adv-x="722" unicode="&#xdb;"/><glyph d="M646 260q0-64-22-115.5t-60-87.5-90-55.5-113-19.5-113 19.5-90.5 55.5-60 87.5-21.5 115.5v448h126v-444q0-26 8-54.5t26.5-52.5 49-39.5 75.5-15.5 75.5 15.5 49 39.5 26.5 52.5 8 54.5v444h126v-448zM181 828q0 29 21.5 50.5t54.5 21.5 55.5-20.5 22.5-51.5-22.5-51.5-55.5-20.5-54.5 21.5-21.5 50.5zM387 828q0 29 21.5 50.5t54.5 21.5 55.5-20.5 22.5-51.5-22.5-51.5-55.5-20.5-54.5 21.5-21.5 50.5z" glyph-name="Udieresis" horiz-adv-x="722" unicode="&#xdc;"/><glyph d="M252 303l-266 405h158l174-282 176 282h150l-266-405v-303h-126v303zM367 900h136l-141-144h-94z" glyph-name="Yacute" horiz-adv-x="630" unicode="&#xdd;"/><glyph d="M79 708h126v-137h112q51 0 98.5-10t83.5-33.5 57.5-63 21.5-98.5q0-67-23-108t-62-63.5-90.5-30.5-107.5-8h-90v-156h-126v708zM281 264q27 0 56 2t53.5 12 40 30 15.5 56q0 33-14 52.5t-36 30-49 13.5-52 3h-90v-199h76z" glyph-name="Thorn" horiz-adv-x="611" unicode="&#xde;"/><glyph d="M56 511q0 136 59.5 196.5t180.5 60.5q43 0 82.5-11.5t69.5-35 47.5-58 17.5-80.5q0-55-27.5-96t-78.5-62v-2q40-5 70-23t50-45.5 30-62.5 10-74q0-51-17.5-93.5t-48.5-73-74.5-47-94.5-16.5q-21 0-42 2.5t-42 8.5v101q14-6 27-8t28-2q63 0 103.5 37t40.5 101q0 71-42.5 107t-109.5 36h-14v102h8q45 0 74.5 24.5t29.5 69.5q0 42-29.5 67.5t-71.5 25.5q-60 0-88-34.5t-28-86.5v-539h-120v511z" glyph-name="germandbls" horiz-adv-x="611" unicode="&#xdf;"/><glyph d="M368 66h-3q-26-41-66-59.5t-88-18.5q-33 0-64.5 9t-56 27-39.5 45-15 63q0 39 14 66.5t37.5 46 54.5 29.5 64.5 16.5 67.5 7 64 1.5h30v13q0 45-31 67.5t-79 22.5q-38 0-71-13.5t-57-36.5l-63 63q40 41 93.5 59t110.5 18q51 0 86-11.5t58-29.5 35.5-41.5 18-47.5 6.5-46.5 1-39.5v-276h-108v66zM361 215h-25q-25 0-56-2t-58.5-9.5-46.5-22-19-40.5q0-17 7.5-28.5t19.5-19.5 27-11.5 30-3.5q62 0 91.5 29.5t29.5 80.5v27zM316 564h-94l-141 144h136z" glyph-name="agrave" horiz-adv-x="537" unicode="&#xe0;"/><glyph d="M368 66h-3q-26-41-66-59.5t-88-18.5q-33 0-64.5 9t-56 27-39.5 45-15 63q0 39 14 66.5t37.5 46 54.5 29.5 64.5 16.5 67.5 7 64 1.5h30v13q0 45-31 67.5t-79 22.5q-38 0-71-13.5t-57-36.5l-63 63q40 41 93.5 59t110.5 18q51 0 86-11.5t58-29.5 35.5-41.5 18-47.5 6.5-46.5 1-39.5v-276h-108v66zM361 215h-25q-25 0-56-2t-58.5-9.5-46.5-22-19-40.5q0-17 7.5-28.5t19.5-19.5 27-11.5 30-3.5q62 0 91.5 29.5t29.5 80.5v27zM321 708h136l-141-144h-94z" glyph-name="aacute" horiz-adv-x="537" unicode="&#xe1;"/><glyph d="M368 66h-3q-26-41-66-59.5t-88-18.5q-33 0-64.5 9t-56 27-39.5 45-15 63q0 39 14 66.5t37.5 46 54.5 29.5 64.5 16.5 67.5 7 64 1.5h30v13q0 45-31 67.5t-79 22.5q-38 0-71-13.5t-57-36.5l-63 63q40 41 93.5 59t110.5 18q51 0 86-11.5t58-29.5 35.5-41.5 18-47.5 6.5-46.5 1-39.5v-276h-108v66zM361 215h-25q-25 0-56-2t-58.5-9.5-46.5-22-19-40.5q0-17 7.5-28.5t19.5-19.5 27-11.5 30-3.5q62 0 91.5 29.5t29.5 80.5v27zM337 564l-69 90-69-90h-112l115 144h135l114-144h-114z" glyph-name="acircumflex" horiz-adv-x="537" unicode="&#xe2;"/><glyph d="M368 66h-3q-26-41-66-59.5t-88-18.5q-33 0-64.5 9t-56 27-39.5 45-15 63q0 39 14 66.5t37.5 46 54.5 29.5 64.5 16.5 67.5 7 64 1.5h30v13q0 45-31 67.5t-79 22.5q-38 0-71-13.5t-57-36.5l-63 63q40 41 93.5 59t110.5 18q51 0 86-11.5t58-29.5 35.5-41.5 18-47.5 6.5-46.5 1-39.5v-276h-108v66zM361 215h-25q-25 0-56-2t-58.5-9.5-46.5-22-19-40.5q0-17 7.5-28.5t19.5-19.5 27-11.5 30-3.5q62 0 91.5 29.5t29.5 80.5v27zM85 568q4 24 11.5 47t20.5 40.5 32.5 28.5 47.5 11q20 0 40.5-6t39.5-12.5 35.5-12.5 28.5-6q20 0 30.5 12.5t15.5 29.5h66q-4-24-11.5-47t-20.5-40.5-32.5-28.5-47.5-11q-20 0-40.5 6t-39.5 13-35.5 13-28.5 6q-20 0-30.5-13t-15.5-30h-66z" glyph-name="atilde" horiz-adv-x="537" unicode="&#xe3;"/><glyph d="M368 66h-3q-26-41-66-59.5t-88-18.5q-33 0-64.5 9t-56 27-39.5 45-15 63q0 39 14 66.5t37.5 46 54.5 29.5 64.5 16.5 67.5 7 64 1.5h30v13q0 45-31 67.5t-79 22.5q-38 0-71-13.5t-57-36.5l-63 63q40 41 93.5 59t110.5 18q51 0 86-11.5t58-29.5 35.5-41.5 18-47.5 6.5-46.5 1-39.5v-276h-108v66zM361 215h-25q-25 0-56-2t-58.5-9.5-46.5-22-19-40.5q0-17 7.5-28.5t19.5-19.5 27-11.5 30-3.5q62 0 91.5 29.5t29.5 80.5v27zM89 636q0 29 21.5 50.5t54.5 21.5 55.5-20.5 22.5-51.5-22.5-51.5-55.5-20.5-54.5 21.5-21.5 50.5zM295 636q0 29 21.5 50.5t54.5 21.5 55.5-20.5 22.5-51.5-22.5-51.5-55.5-20.5-54.5 21.5-21.5 50.5z" glyph-name="adieresis" horiz-adv-x="537" unicode="&#xe4;"/><glyph d="M368 66h-3q-26-41-66-59.5t-88-18.5q-33 0-64.5 9t-56 27-39.5 45-15 63q0 39 14 66.5t37.5 46 54.5 29.5 64.5 16.5 67.5 7 64 1.5h30v13q0 45-31 67.5t-79 22.5q-38 0-71-13.5t-57-36.5l-63 63q40 41 93.5 59t110.5 18q51 0 86-11.5t58-29.5 35.5-41.5 18-47.5 6.5-46.5 1-39.5v-276h-108v66zM361 215h-25q-25 0-56-2t-58.5-9.5-46.5-22-19-40.5q0-17 7.5-28.5t19.5-19.5 27-11.5 30-3.5q62 0 91.5 29.5t29.5 80.5v27zM374 655q0-45-30-73.5t-75-28.5-75 28.5-30 72.5q0 22 8 41t22 32.5 33 21.5 42 8q45 0 75-28.5t30-73.5zM326 655q0 23-17 38.5t-40 15.5-40-15.5-17-38.5 17-38.5 40-15.5 40 15 17 39z" glyph-name="aring" horiz-adv-x="537" unicode="&#xe5;"/><glyph d="M816 204h-350q-1-29 10-52.5t28.5-40 38.5-25 40-8.5q45 0 75 18.5t53 46.5l83-59q-40-51-92.5-73.5t-118.5-22.5q-61 0-107 25t-72 61q-32-49-82.5-67t-110.5-18q-32 0-63.5 8.5t-56 26-40 44.5-15.5 65q0 85 60.5 120t171.5 35h98q0 53-27 84t-81 31q-38 0-71-13.5t-57-36.5l-63 63q40 41 93.5 59t110.5 18q42 2 86-15.5t73-55.5q29 32 66 51.5t89 18.5q58 0 101.5-20t72.5-54.5 43-81 14-99.5v-33zM239 79q30 0 54 10t40 25.5 24.5 36 8.5 41.5v12h-60q-25 0-51.5-2.5t-48.5-9-36-19-14-32.5q0-17 8.5-29t21-19.5 27-10.5 26.5-3zM700 288q-3 51-33 82.5t-83 31.5q-50 0-81.5-32t-34.5-82h232z" glyph-name="ae" horiz-adv-x="852" unicode="&#xe6;"/><glyph d="M396 336q-21 22-44 35t-47 13q-33 0-59-12t-44.5-32-28-46-9.5-54 9.5-54 28-46 44.5-32 59-12q28 0 52 11.5t41 33.5l80-86q-18-18-41-30.5t-46.5-21-45.5-12-38-3.5l-34-48q22 0 43.5-2t39-10.5 28-25 10.5-45.5q0-27-13.5-46t-33.5-30-45-16-47-5q-56 0-106 28l22 46q38-20 82-20 8 0 18 2t18.5 6.5 14.5 13 6 20.5q0 20-17.5 28t-33.5 8q-10 0-19-2t-18-5l-27 25 57 83q-45 8-83 29t-65.5 53-43.5 73.5-16 91.5q0 57 20.5 103.5t55.5 79.5 83 51 102 18q46 0 92.5-17.5t81.5-55.5z" glyph-name="ccedilla" horiz-adv-x="482" unicode="&#xe7;"/><glyph d="M164 198q6-54 42-84t87-30q45 0 75.5 18.5t53.5 46.5l86-65q-42-52-94-74t-109-22q-54 0-102 18t-83 51-55.5 79.5-20.5 103.5 20.5 103.5 55.5 79.5 83 51 102 18q50 0 91.5-17.5t71-50.5 46-81.5 16.5-111.5v-33h-366zM410 288q-1 53-33 83.5t-89 30.5q-54 0-85.5-31t-38.5-83h246zM334 564h-94l-141 144h136z" glyph-name="egrave" unicode="&#xe8;"/><glyph d="M164 198q6-54 42-84t87-30q45 0 75.5 18.5t53.5 46.5l86-65q-42-52-94-74t-109-22q-54 0-102 18t-83 51-55.5 79.5-20.5 103.5 20.5 103.5 55.5 79.5 83 51 102 18q50 0 91.5-17.5t71-50.5 46-81.5 16.5-111.5v-33h-366zM410 288q-1 53-33 83.5t-89 30.5q-54 0-85.5-31t-38.5-83h246zM339 708h136l-141-144h-94z" glyph-name="eacute" unicode="&#xe9;"/><glyph d="M164 198q6-54 42-84t87-30q45 0 75.5 18.5t53.5 46.5l86-65q-42-52-94-74t-109-22q-54 0-102 18t-83 51-55.5 79.5-20.5 103.5 20.5 103.5 55.5 79.5 83 51 102 18q50 0 91.5-17.5t71-50.5 46-81.5 16.5-111.5v-33h-366zM410 288q-1 53-33 83.5t-89 30.5q-54 0-85.5-31t-38.5-83h246zM355 564l-69 90-69-90h-112l115 144h135l114-144h-114z" glyph-name="ecircumflex" unicode="&#xea;"/><glyph d="M164 198q6-54 42-84t87-30q45 0 75.5 18.5t53.5 46.5l86-65q-42-52-94-74t-109-22q-54 0-102 18t-83 51-55.5 79.5-20.5 103.5 20.5 103.5 55.5 79.5 83 51 102 18q50 0 91.5-17.5t71-50.5 46-81.5 16.5-111.5v-33h-366zM410 288q-1 53-33 83.5t-89 30.5q-54 0-85.5-31t-38.5-83h246zM107 636q0 29 21.5 50.5t54.5 21.5 55.5-20.5 22.5-51.5-22.5-51.5-55.5-20.5-54.5 21.5-21.5 50.5zM313 636q0 29 21.5 50.5t54.5 21.5 55.5-20.5 22.5-51.5-22.5-51.5-55.5-20.5-54.5 21.5-21.5 50.5z" glyph-name="edieresis" unicode="&#xeb;"/><glyph d="M70 480h120v-480h-120v480zM189 564h-94l-141 144h136z" glyph-name="igrave" horiz-adv-x="260" unicode="&#xec;"/><glyph d="M70 480h120v-480h-120v480zM173 708h136l-141-144h-94z" glyph-name="iacute" horiz-adv-x="260" unicode="&#xed;"/><glyph d="M70 480h120v-480h-120v480zM198 564l-69 90-69-90h-112l115 144h135l114-144h-114z" glyph-name="icircumflex" horiz-adv-x="260" unicode="&#xee;"/><glyph d="M70 480h120v-480h-120v480zM-50 636q0 29 21.5 50.5t54.5 21.5 55.5-20.5 22.5-51.5-22.5-51.5-55.5-20.5-54.5 21.5-21.5 50.5zM156 636q0 29 21.5 50.5t54.5 21.5 55.5-20.5 22.5-51.5-22.5-51.5-55.5-20.5-54.5 21.5-21.5 50.5z" glyph-name="idieresis" horiz-adv-x="260" unicode="&#xef;"/><glyph d="M506 712l-117-54q36-39 68-82.5t56.5-91 38.5-99.5 14-108q0-63-16.5-116t-49.5-91.5-82-60-113-21.5q-54 0-102 18t-83 51-55.5 79.5-20.5 103.5 20 103.5 54.5 79.5 80 51 96.5 18q33 0 62.5-8.5t51.5-29.5l2 2q-26 42-58.5 79t-67.5 73l-3 3-106-49-60 57 107 50q-7 7-17 15.5t-21 17.5-21.5 17.5-17.5 14.5l100 58q27-21 50.5-42.5t34.5-32.5l111 51zM305 96q33 0 59 12t44.5 32 28 46 9.5 54-9.5 54-28 46-44.5 32-59 12-59-12-44.5-32-28-46-9.5-54 9.5-54 28-46 44.5-32 59-12z" glyph-name="eth" horiz-adv-x="610" unicode="&#xf0;"/><glyph d="M68 480h114v-77h2q17 36 52 62.5t95 26.5q48 0 81.5-16t54.5-42 30-60 9-71v-303h-120v243q0 20-2 44.5t-10.5 46-26.5 36-49 14.5q-30 0-50.5-10t-34-27-19.5-39-6-46v-262h-120v480zM103 568q4 24 11.5 47t20.5 40.5 32.5 28.5 47.5 11q20 0 40.5-6t39.5-12.5 35.5-12.5 28.5-6q20 0 30.5 12.5t15.5 29.5h66q-4-24-11.5-47t-20.5-40.5-32.5-28.5-47.5-11q-20 0-40.5 6t-39.5 13-35.5 13-28.5 6q-20 0-30.5-13t-15.5-30h-66z" glyph-name="ntilde" unicode="&#xf1;"/><glyph d="M44 240q0 57 20.5 103.5t55.5 79.5 83 51 102 18 102-18 83-51 55.5-79.5 20.5-103.5-20.5-103.5-55.5-79.5-83-51-102-18-102 18-83 51-55.5 79.5-20.5 103.5zM164 240q0-28 9.5-54t28-46 44.5-32 59-12 59 12 44.5 32 28 46 9.5 54-9.5 54-28 46-44.5 32-59 12-59-12-44.5-32-28-46-9.5-54zM352 564h-94l-141 144h136z" glyph-name="ograve" horiz-adv-x="610" unicode="&#xf2;"/><glyph d="M44 240q0 57 20.5 103.5t55.5 79.5 83 51 102 18 102-18 83-51 55.5-79.5 20.5-103.5-20.5-103.5-55.5-79.5-83-51-102-18-102 18-83 51-55.5 79.5-20.5 103.5zM164 240q0-28 9.5-54t28-46 44.5-32 59-12 59 12 44.5 32 28 46 9.5 54-9.5 54-28 46-44.5 32-59 12-59-12-44.5-32-28-46-9.5-54zM357 708h136l-141-144h-94z" glyph-name="oacute" horiz-adv-x="610" unicode="&#xf3;"/><glyph d="M44 240q0 57 20.5 103.5t55.5 79.5 83 51 102 18 102-18 83-51 55.5-79.5 20.5-103.5-20.5-103.5-55.5-79.5-83-51-102-18-102 18-83 51-55.5 79.5-20.5 103.5zM164 240q0-28 9.5-54t28-46 44.5-32 59-12 59 12 44.5 32 28 46 9.5 54-9.5 54-28 46-44.5 32-59 12-59-12-44.5-32-28-46-9.5-54zM373 564l-69 90-69-90h-112l115 144h135l114-144h-114z" glyph-name="ocircumflex" horiz-adv-x="610" unicode="&#xf4;"/><glyph d="M44 240q0 57 20.5 103.5t55.5 79.5 83 51 102 18 102-18 83-51 55.5-79.5 20.5-103.5-20.5-103.5-55.5-79.5-83-51-102-18-102 18-83 51-55.5 79.5-20.5 103.5zM164 240q0-28 9.5-54t28-46 44.5-32 59-12 59 12 44.5 32 28 46 9.5 54-9.5 54-28 46-44.5 32-59 12-59-12-44.5-32-28-46-9.5-54zM121 568q4 24 11.5 47t20.5 40.5 32.5 28.5 47.5 11q20 0 40.5-6t39.5-12.5 35.5-12.5 28.5-6q20 0 30.5 12.5t15.5 29.5h66q-4-24-11.5-47t-20.5-40.5-32.5-28.5-47.5-11q-20 0-40.5 6t-39.5 13-35.5 13-28.5 6q-20 0-30.5-13t-15.5-30h-66z" glyph-name="otilde" horiz-adv-x="610" unicode="&#xf5;"/><glyph d="M44 240q0 57 20.5 103.5t55.5 79.5 83 51 102 18 102-18 83-51 55.5-79.5 20.5-103.5-20.5-103.5-55.5-79.5-83-51-102-18-102 18-83 51-55.5 79.5-20.5 103.5zM164 240q0-28 9.5-54t28-46 44.5-32 59-12 59 12 44.5 32 28 46 9.5 54-9.5 54-28 46-44.5 32-59 12-59-12-44.5-32-28-46-9.5-54zM125 636q0 29 21.5 50.5t54.5 21.5 55.5-20.5 22.5-51.5-22.5-51.5-55.5-20.5-54.5 21.5-21.5 50.5zM331 636q0 29 21.5 50.5t54.5 21.5 55.5-20.5 22.5-51.5-22.5-51.5-55.5-20.5-54.5 21.5-21.5 50.5z" glyph-name="odieresis" horiz-adv-x="610" unicode="&#xf6;"/><glyph d="M604 354v-102h-542v102h542zM258 483q0 31 22 53t53 22 53-22 22-53-22-53-53-22-53 22-22 53zM258 123q0 31 22 53t53 22 53-22 22-53-22-53-53-22-53 22-22 53z" glyph-name="divide" horiz-adv-x="666" unicode="&#xf7;"/><glyph d="M384 360q-16 11-36 17.5t-43 6.5q-33 0-59-12t-44.5-32-28-46-9.5-54q0-45 23-80zM227 119q32-23 78-23 33 0 59 12t44.5 32 28 46 9.5 54q0 43-21 78zM579 474l-70-71q26-32 41.5-73t15.5-90q0-57-20.5-103.5t-55.5-79.5-83-51-102-18q-46 0-86.5 13t-72.5 36l-70-71-40 41 67 68q-28 32-43.5 73.5t-15.5 91.5q0 57 20.5 103.5t55.5 79.5 83 51 102 18q46 0 87-13t74-37l71 72z" glyph-name="oslash" horiz-adv-x="610" unicode="&#xf8;"/><glyph d="M506 0h-114v77h-2q-17-36-52-62.5t-95-26.5q-48 0-81.5 15.5t-54.5 42-30 60.5-9 71v303h120v-243q0-20 2-44.5t10.5-46 26-36 49.5-14.5q30 0 50.5 10t34 27 19.5 39 6 46v262h120v-480zM334 564h-94l-141 144h136z" glyph-name="ugrave" unicode="&#xf9;"/><glyph d="M506 0h-114v77h-2q-17-36-52-62.5t-95-26.5q-48 0-81.5 15.5t-54.5 42-30 60.5-9 71v303h120v-243q0-20 2-44.5t10.5-46 26-36 49.5-14.5q30 0 50.5 10t34 27 19.5 39 6 46v262h120v-480zM339 708h136l-141-144h-94z" glyph-name="uacute" unicode="&#xfa;"/><glyph d="M506 0h-114v77h-2q-17-36-52-62.5t-95-26.5q-48 0-81.5 15.5t-54.5 42-30 60.5-9 71v303h120v-243q0-20 2-44.5t10.5-46 26-36 49.5-14.5q30 0 50.5 10t34 27 19.5 39 6 46v262h120v-480zM355 564l-69 90-69-90h-112l115 144h135l114-144h-114z" glyph-name="ucircumflex" unicode="&#xfb;"/><glyph d="M506 0h-114v77h-2q-17-36-52-62.5t-95-26.5q-48 0-81.5 15.5t-54.5 42-30 60.5-9 71v303h120v-243q0-20 2-44.5t10.5-46 26-36 49.5-14.5q30 0 50.5 10t34 27 19.5 39 6 46v262h120v-480zM107 636q0 29 21.5 50.5t54.5 21.5 55.5-20.5 22.5-51.5-22.5-51.5-55.5-20.5-54.5 21.5-21.5 50.5zM313 636q0 29 21.5 50.5t54.5 21.5 55.5-20.5 22.5-51.5-22.5-51.5-55.5-20.5-54.5 21.5-21.5 50.5z" glyph-name="udieresis" unicode="&#xfc;"/><glyph d="M3 480h132l134-333h2l120 333h125l-227-583q-13-34-28.5-59.5t-36.5-43-49.5-26-68.5-8.5q-47 0-92 12l15 108q14-5 29.5-8.5t31.5-3.5q22 0 37 4t25.5 12.5 17.5 22 15 32.5l23 57zM312 708h136l-141-144h-94z" glyph-name="yacute" horiz-adv-x="519" unicode="&#xfd;"/><glyph d="M68 756h120v-338h2q22 36 65 55t94 19q55 0 99-19.5t75-53.5 47-80 16-99-17-99-47.5-80-73.5-53.5-94-19.5q-34 0-60 7t-46 18-34 23.5-23 24.5h-3v-289h-120v984zM466 240q0 28-9.5 54t-28 46-44.5 32-59 12-59-12-44.5-32-28-46-9.5-54 9.5-54 28-46 44.5-32 59-12 59 12 44.5 32 28 46 9.5 54z" glyph-name="thorn" horiz-adv-x="630" unicode="&#xfe;"/><glyph d="M3 480h132l134-333h2l120 333h125l-227-583q-13-34-28.5-59.5t-36.5-43-49.5-26-68.5-8.5q-47 0-92 12l15 108q14-5 29.5-8.5t31.5-3.5q22 0 37 4t25.5 12.5 17.5 22 15 32.5l23 57zM80 636q0 29 21.5 50.5t54.5 21.5 55.5-20.5 22.5-51.5-22.5-51.5-55.5-20.5-54.5 21.5-21.5 50.5zM286 636q0 29 21.5 50.5t54.5 21.5 55.5-20.5 22.5-51.5-22.5-51.5-55.5-20.5-54.5 21.5-21.5 50.5z" glyph-name="ydieresis" horiz-adv-x="519" unicode="&#xff;"/><glyph d="M308 708h109l305-708h-144l-66 162h-307l-64-162h-141zM468 270l-109 288-111-288h220zM518 787h-320v78h320v-78z" glyph-name="Amacron" horiz-adv-x="722" unicode="&#x100;"/><glyph d="M368 66h-3q-26-41-66-59.5t-88-18.5q-33 0-64.5 9t-56 27-39.5 45-15 63q0 39 14 66.5t37.5 46 54.5 29.5 64.5 16.5 67.5 7 64 1.5h30v13q0 45-31 67.5t-79 22.5q-38 0-71-13.5t-57-36.5l-63 63q40 41 93.5 59t110.5 18q51 0 86-11.5t58-29.5 35.5-41.5 18-47.5 6.5-46.5 1-39.5v-276h-108v66zM361 215h-25q-25 0-56-2t-58.5-9.5-46.5-22-19-40.5q0-17 7.5-28.5t19.5-19.5 27-11.5 30-3.5q62 0 91.5 29.5t29.5 80.5v27zM444 595h-320v78h320v-78z" glyph-name="amacron" horiz-adv-x="537" unicode="&#x101;"/><glyph d="M308 708h109l305-708h-144l-66 162h-307l-64-162h-141zM468 270l-109 288-111-288h220zM255 900q7-38 36-52t67-14q43 0 68 12t36 54h66q-8-75-53.5-109.5t-117.5-34.5-118 34.5-51 109.5h67z" glyph-name="Abreve" horiz-adv-x="722" unicode="&#x102;"/><glyph d="M368 66h-3q-26-41-66-59.5t-88-18.5q-33 0-64.5 9t-56 27-39.5 45-15 63q0 39 14 66.5t37.5 46 54.5 29.5 64.5 16.5 67.5 7 64 1.5h30v13q0 45-31 67.5t-79 22.5q-38 0-71-13.5t-57-36.5l-63 63q40 41 93.5 59t110.5 18q51 0 86-11.5t58-29.5 35.5-41.5 18-47.5 6.5-46.5 1-39.5v-276h-108v66zM361 215h-25q-25 0-56-2t-58.5-9.5-46.5-22-19-40.5q0-17 7.5-28.5t19.5-19.5 27-11.5 30-3.5q62 0 91.5 29.5t29.5 80.5v27zM181 708q7-38 36-52t67-14q43 0 68 12t36 54h66q-8-74-53.5-109t-117.5-35-118 34.5-51 109.5h67z" glyph-name="abreve" horiz-adv-x="537" unicode="&#x103;"/><glyph d="M689-196q-21-17-46.5-27.5t-53.5-10.5q-20 0-38.5 5.5t-33 17-23 28-8.5 38.5q0 20 8.5 40.5t22 39.5 29.5 35.5 32 29.5l-66 162h-307l-64-162h-141l308 708h109l305-708h-82q-12-11-25-25.5t-24.5-31-19-33.5-7.5-32q0-19 13.5-32.5t32.5-13.5q14 0 28.5 6t25.5 15zM468 270l-109 288-111-288h220z" glyph-name="Aogonek" horiz-adv-x="722" unicode="&#x104;"/><glyph d="M368 66h-3q-26-42-66-60t-88-18q-33 0-64.5 9t-56 27-39.5 45-15 63q0 39 14 66.5t37.5 46 54.5 29.5 64.5 16.5 67.5 7 64 1.5h30v13q0 45-31 67.5t-79 22.5q-38 0-71-13.5t-57-36.5l-63 63q40 42 93.5 59.5t110.5 17.5q51 0 86-11.5t58-29.5 35.5-41.5 18-47.5 6.5-46.5 1-39.5v-276h-46q-12-11-25-25.5t-24.5-31-19-33.5-7.5-32q0-19 13.5-32.5t32.5-13.5q14 0 28.5 6t25.5 15l25-49q-21-17-46.5-27.5t-53.5-10.5q-20 0-38.5 5.5t-33 17-23 28-8.5 38.5q0 20 8.5 40.5t22 39.5 29.5 35.5 32 29.5v66zM361 215h-25q-25 0-56-2t-58.5-9.5-46.5-22.5-19-40q0-17 7.5-28.5t19.5-19.5 27-11.5 30-3.5q63 0 92 29.5t29 80.5v27z" glyph-name="aogonek" horiz-adv-x="537" unicode="&#x105;"/><glyph d="M565 542q-39 42-75.5 56t-73.5 14q-55 0-99.5-19.5t-76.5-54-49.5-80.5-17.5-99q0-57 17.5-105t49.5-83 76.5-55 99.5-20q43 0 83.5 20.5t75.5 65.5l104-74q-48-66-117-96t-147-30q-82 0-150.5 26.5t-118 75-77.5 116.5-28 151q0 85 28 154.5t77.5 118.5 118 75.5 150.5 26.5q72 0 133.5-25.5t114.5-86.5zM440 900h136l-141-144h-94z" glyph-name="Cacute" horiz-adv-x="685" unicode="&#x106;"/><glyph d="M396 336q-21 22-44 35t-47 13q-33 0-59-12t-44.5-32-28-46-9.5-54 9.5-54 28-46 44.5-32 59-12q28 0 52 11.5t41 33.5l80-86q-18-18-41.5-31t-47.5-21-46-11.5-38-3.5q-54 0-102 18t-83 51-55.5 79.5-20.5 103.5 20.5 103.5 55.5 79.5 83 51 102 18q46 0 92.5-17.5t81.5-55.5zM341 708h136l-141-144h-94z" glyph-name="cacute" horiz-adv-x="482" unicode="&#x107;"/><glyph d="M565 542q-39 42-75.5 56t-73.5 14q-55 0-99.5-19.5t-76.5-54-49.5-80.5-17.5-99q0-57 17.5-105t49.5-83 76.5-55 99.5-20q43 0 83.5 20.5t75.5 65.5l104-74q-48-66-117-96t-147-30q-82 0-150.5 26.5t-118 75-77.5 116.5-28 151q0 85 28 154.5t77.5 118.5 118 75.5 150.5 26.5q72 0 133.5-25.5t114.5-86.5zM480 756l-69 90-69-90h-112l115 144h135l114-144h-114z" glyph-name="Ccircumflex" horiz-adv-x="685" unicode="&#x108;"/><glyph d="M396 336q-21 22-44 35t-47 13q-33 0-59-12t-44.5-32-28-46-9.5-54 9.5-54 28-46 44.5-32 59-12q28 0 52 11.5t41 33.5l80-86q-18-18-41.5-31t-47.5-21-46-11.5-38-3.5q-54 0-102 18t-83 51-55.5 79.5-20.5 103.5 20.5 103.5 55.5 79.5 83 51 102 18q46 0 92.5-17.5t81.5-55.5zM362 564l-69 90-69-90h-112l115 144h135l114-144h-114z" glyph-name="ccircumflex" horiz-adv-x="482" unicode="&#x109;"/><glyph d="M565 542q-39 42-75.5 56t-73.5 14q-55 0-99.5-19.5t-76.5-54-49.5-80.5-17.5-99q0-57 17.5-105t49.5-83 76.5-55 99.5-20q43 0 83.5 20.5t75.5 65.5l104-74q-48-66-117-96t-147-30q-82 0-150.5 26.5t-118 75-77.5 116.5-28 151q0 85 28 154.5t77.5 118.5 118 75.5 150.5 26.5q72 0 133.5-25.5t114.5-86.5zM335 828q0 29 21.5 50.5t54.5 21.5 55.5-20.5 22.5-51.5-22.5-51.5-55.5-20.5-54.5 21.5-21.5 50.5z" glyph-name="Cdotaccent" horiz-adv-x="685" unicode="&#x10a;"/><glyph d="M396 336q-21 22-44 35t-47 13q-33 0-59-12t-44.5-32-28-46-9.5-54 9.5-54 28-46 44.5-32 59-12q28 0 52 11.5t41 33.5l80-86q-18-18-41.5-31t-47.5-21-46-11.5-38-3.5q-54 0-102 18t-83 51-55.5 79.5-20.5 103.5 20.5 103.5 55.5 79.5 83 51 102 18q46 0 92.5-17.5t81.5-55.5zM217 636q0 29 21.5 50.5t54.5 21.5 55.5-20.5 22.5-51.5-22.5-51.5-55.5-20.5-54.5 21.5-21.5 50.5z" glyph-name="cdotaccent" horiz-adv-x="482" unicode="&#x10b;"/><glyph d="M565 542q-39 42-75.5 56t-73.5 14q-55 0-99.5-19.5t-76.5-54-49.5-80.5-17.5-99q0-57 17.5-105t49.5-83 76.5-55 99.5-20q43 0 83.5 20.5t75.5 65.5l104-74q-48-66-117-96t-147-30q-82 0-150.5 26.5t-118 75-77.5 116.5-28 151q0 85 28 154.5t77.5 118.5 118 75.5 150.5 26.5q72 0 133.5-25.5t114.5-86.5zM345 900l69-90 69 90h110l-115-144h-133l-114 144h114z" glyph-name="Ccaron" horiz-adv-x="685" unicode="&#x10c;"/><glyph d="M396 336q-21 22-44 35t-47 13q-33 0-59-12t-44.5-32-28-46-9.5-54 9.5-54 28-46 44.5-32 59-12q28 0 52 11.5t41 33.5l80-86q-18-18-41.5-31t-47.5-21-46-11.5-38-3.5q-54 0-102 18t-83 51-55.5 79.5-20.5 103.5 20.5 103.5 55.5 79.5 83 51 102 18q46 0 92.5-17.5t81.5-55.5zM226 708l69-90 69 90h110l-115-144h-133l-114 144h114z" glyph-name="ccaron" horiz-adv-x="482" unicode="&#x10d;"/><glyph d="M79 708h279q70 0 135-21.5t115-65.5 80-110.5 30-156.5q0-91-34.5-157.5t-89-110-121-65-130.5-21.5h-264v708zM299 114q59 0 111.5 13.5t91.5 42 61.5 74 22.5 110.5q0 64-20 110t-55.5 74.5-84 42-106.5 13.5h-115v-480h94zM266 900l69-90 69 90h110l-115-144h-133l-114 144h114z" glyph-name="Dcaron" horiz-adv-x="759" unicode="&#x10e;"/><glyph d="M448 72h-2q-26-44-70-64t-95-20q-56 0-99.5 19.5t-74.5 53.5-47 80-16 99 17 99 47.5 80 73.5 53.5 94 19.5q34 0 60-7t46-18 34-23.5 23-24.5h3v337h120v-756h-114v72zM164 240q0-28 9.5-54t28-46 44.5-32 59-12 59 12 44.5 32 28 46 9.5 54-9.5 54-28 46-44.5 32-59 12-59-12-44.5-32-28-46-9.5-54zM670 708h122l-85-198h-97z" glyph-name="dcaron" horiz-adv-x="630" unicode="&#x10f;"/><glyph d="M79 324h-66v84h66v300h279q70 0 135-21.5t115-65.5 80-110.5 30-156.5q0-91-34.5-157.5t-89-110-121-65-130.5-21.5h-264v324zM299 114q59 0 111.5 13.5t91.5 42 61.5 74 22.5 110.5q0 64-20 110t-55.5 74.5-84 42-106.5 13.5h-115v-186h216v-84h-216v-210h94z" glyph-name="Dcroat" horiz-adv-x="759" unicode="&#x110;"/><glyph d="M633 565h-71v-565h-114v72h-2q-26-45-70-64.5t-95-19.5q-56 0-99.5 19.5t-74.5 53.5-47 80-16 99 17 99 47.5 80 73.5 53.5 94 19.5q33 0 59.5-7t46.5-18 34-23.5 23-24.5h3v146h-129v78h129v113h120v-113h71v-78zM164 240q0-28 9.5-54t28-46 44.5-32 59-12 59 12 44.5 32 28 46 9.5 54-9.5 54-28 46-44.5 32-59 12-59-12-44.5-32-28-46-9.5-54z" glyph-name="dcroat" horiz-adv-x="630" unicode="&#x111;"/><glyph d="M79 708h469v-114h-343v-174h325v-114h-325v-192h361v-114h-487v708zM480 787h-320v78h320v-78z" glyph-name="Emacron" horiz-adv-x="611" unicode="&#x112;"/><glyph d="M164 198q6-54 42-84t87-30q45 0 75.5 18.5t53.5 46.5l86-65q-42-52-94-74t-109-22q-54 0-102 18t-83 51-55.5 79.5-20.5 103.5 20.5 103.5 55.5 79.5 83 51 102 18q50 0 91.5-17.5t71-50.5 46-81.5 16.5-111.5v-33h-366zM410 288q-1 53-33 83.5t-89 30.5q-54 0-85.5-31t-38.5-83h246zM460 595h-320v78h320v-78z" glyph-name="emacron" unicode="&#x113;"/><glyph d="M79 708h469v-114h-343v-174h325v-114h-325v-192h361v-114h-487v708zM220 900q7-38 36-52t67-14q43 0 68 12t36 54h66q-8-75-53.5-109.5t-117.5-34.5-118 34.5-51 109.5h67z" glyph-name="Ebreve" horiz-adv-x="611" unicode="&#x114;"/><glyph d="M164 198q6-54 42-84t87-30q45 0 75.5 18.5t53.5 46.5l86-65q-42-52-94-74t-109-22q-54 0-102 18t-83 51-55.5 79.5-20.5 103.5 20.5 103.5 55.5 79.5 83 51 102 18q50 0 91.5-17.5t71-50.5 46-81.5 16.5-111.5v-33h-366zM410 288q-1 53-33 83.5t-89 30.5q-54 0-85.5-31t-38.5-83h246zM197 708q7-38 36-52t67-14q43 0 68 12t36 54h66q-8-74-53.5-109t-117.5-35-118 34.5-51 109.5h67z" glyph-name="ebreve" unicode="&#x115;"/><glyph d="M79 708h469v-114h-343v-174h325v-114h-325v-192h361v-114h-487v708zM258 828q0 29 21.5 50.5t54.5 21.5 55.5-20.5 22.5-51.5-22.5-51.5-55.5-20.5-54.5 21.5-21.5 50.5z" glyph-name="Edotaccent" horiz-adv-x="611" unicode="&#x116;"/><glyph d="M164 198q6-54 42-84t87-30q45 0 75.5 18.5t53.5 46.5l86-65q-42-52-94-74t-109-22q-54 0-102 18t-83 51-55.5 79.5-20.5 103.5 20.5 103.5 55.5 79.5 83 51 102 18q50 0 91.5-17.5t71-50.5 46-81.5 16.5-111.5v-33h-366zM410 288q-1 53-33 83.5t-89 30.5q-54 0-85.5-31t-38.5-83h246zM223 636q0 29 21.5 50.5t54.5 21.5 55.5-20.5 22.5-51.5-22.5-51.5-55.5-20.5-54.5 21.5-21.5 50.5z" glyph-name="edotaccent" unicode="&#x117;"/><glyph d="M79 708h469v-114h-343v-174h325v-114h-325v-192h361v-114h-59q-12-11-25-25.5t-24.5-31-19-33.5-7.5-32q0-19 13.5-32.5t32.5-13.5q14 0 28.5 6t25.5 15l25-49q-21-17-46.5-27.5t-53.5-10.5q-20 0-38.5 5.5t-33 17-23 28-8.5 38.5q0 20 8.5 40.5t22 39.5 29.5 35.5 32 29.5h-366v708z" glyph-name="Eogonek" horiz-adv-x="611" unicode="&#x118;"/><glyph d="M414-196q-21-17-46.5-27.5t-53.5-10.5q-20 0-38.5 5.5t-33 17-23 28-8.5 38.5q0 18 7 36.5t18 35.5 25 33 28 29q-51 3-96 22t-78 51.5-52 77.5-19 100q0 57 20.5 103.5t55.5 79.5 83 51 102 18q50 0 91.5-17.5t71-50.5 46-81.5 16.5-111.5v-33h-366q6-54 42-84t87-30q45 0 75.5 18.5t53.5 46.5l86-65q-32-40-70.5-61.5t-80.5-29.5q-11-11-23-25t-22-29-16.5-31-6.5-30q0-19 13.5-32.5t32.5-13.5q14 0 28.5 6t25.5 15zM410 288q-1 54-33 84t-89 30q-54 0-85.5-31t-38.5-83h246z" glyph-name="eogonek" unicode="&#x119;"/><glyph d="M79 708h469v-114h-343v-174h325v-114h-325v-192h361v-114h-487v708zM258 900l69-90 69 90h110l-115-144h-133l-114 144h114z" glyph-name="Ecaron" horiz-adv-x="611" unicode="&#x11a;"/><glyph d="M164 198q6-54 42-84t87-30q45 0 75.5 18.5t53.5 46.5l86-65q-42-52-94-74t-109-22q-54 0-102 18t-83 51-55.5 79.5-20.5 103.5 20.5 103.5 55.5 79.5 83 51 102 18q50 0 91.5-17.5t71-50.5 46-81.5 16.5-111.5v-33h-366zM410 288q-1 53-33 83.5t-89 30.5q-54 0-85.5-31t-38.5-83h246zM233 708l69-90 69 90h110l-115-144h-133l-114 144h114z" glyph-name="ecaron" unicode="&#x11b;"/><glyph d="M708 52q-131-70-293-70-82 0-150.5 26.5t-118 75-77.5 116.5-28 151q0 85 28 154.5t77.5 118.5 118 75.5 150.5 26.5q81 0 152-19.5t127-69.5l-93-94q-34 33-82.5 51t-102.5 18q-55 0-99.5-19.5t-76.5-54-49.5-80.5-17.5-99q0-57 17.5-105t49.5-83 76.5-55 99.5-20q48 0 90.5 9t75.5 28v167h-145v114h271v-362zM479 756l-69 90-69-90h-112l115 144h135l114-144h-114z" glyph-name="Gcircumflex" horiz-adv-x="778" unicode="&#x11c;"/><glyph d="M562 480v-437q0-65-16-117.5t-49.5-89-84.5-56.5-121-20q-67 0-127 17t-111 62l72 98q36-33 75-51t90-18q43 0 72.5 12t47 33 25 50.5 7.5 65.5v35h-2q-26-35-69-52.5t-88-17.5q-54 0-98 19.5t-75.5 52.5-48.5 78-17 96q0 53 16 99t47 80 74.5 53.5 99.5 19.5q51 0 95-20t70-64h2v72h114zM306 384q-32 0-58-10.5t-44.5-29-29-45-10.5-58.5q0-29 10.5-54t29.5-44 45-30 56-11q33 0 59.5 11t45 29.5 28.5 44.5 10 56q0 63-38 102t-104 39zM395 564l-69 90-69-90h-112l115 144h135l114-144h-114z" glyph-name="gcircumflex" horiz-adv-x="630" unicode="&#x11d;"/><glyph d="M708 52q-131-70-293-70-82 0-150.5 26.5t-118 75-77.5 116.5-28 151q0 85 28 154.5t77.5 118.5 118 75.5 150.5 26.5q81 0 152-19.5t127-69.5l-93-94q-34 33-82.5 51t-102.5 18q-55 0-99.5-19.5t-76.5-54-49.5-80.5-17.5-99q0-57 17.5-105t49.5-83 76.5-55 99.5-20q48 0 90.5 9t75.5 28v167h-145v114h271v-362zM310 900q7-38 36-52t67-14q43 0 68 12t36 54h66q-8-75-53.5-109.5t-117.5-34.5-118 34.5-51 109.5h67z" glyph-name="Gbreve" horiz-adv-x="778" unicode="&#x11e;"/><glyph d="M562 480v-437q0-65-16-117.5t-49.5-89-84.5-56.5-121-20q-67 0-127 17t-111 62l72 98q36-33 75-51t90-18q43 0 72.5 12t47 33 25 50.5 7.5 65.5v35h-2q-26-35-69-52.5t-88-17.5q-54 0-98 19.5t-75.5 52.5-48.5 78-17 96q0 53 16 99t47 80 74.5 53.5 99.5 19.5q51 0 95-20t70-64h2v72h114zM306 384q-32 0-58-10.5t-44.5-29-29-45-10.5-58.5q0-29 10.5-54t29.5-44 45-30 56-11q33 0 59.5 11t45 29.5 28.5 44.5 10 56q0 63-38 102t-104 39zM224 708q7-38 36-52t67-14q43 0 68 12t36 54h66q-8-74-53.5-109t-117.5-35-118 34.5-51 109.5h67z" glyph-name="gbreve" horiz-adv-x="630" unicode="&#x11f;"/><glyph d="M708 52q-131-70-293-70-82 0-150.5 26.5t-118 75-77.5 116.5-28 151q0 85 28 154.5t77.5 118.5 118 75.5 150.5 26.5q81 0 152-19.5t127-69.5l-93-94q-34 33-82.5 51t-102.5 18q-55 0-99.5-19.5t-76.5-54-49.5-80.5-17.5-99q0-57 17.5-105t49.5-83 76.5-55 99.5-20q48 0 90.5 9t75.5 28v167h-145v114h271v-362zM337 828q0 29 21.5 50.5t54.5 21.5 55.5-20.5 22.5-51.5-22.5-51.5-55.5-20.5-54.5 21.5-21.5 50.5z" glyph-name="Gdotaccent" horiz-adv-x="778" unicode="&#x120;"/><glyph d="M562 480v-437q0-65-16-117.5t-49.5-89-84.5-56.5-121-20q-67 0-127 17t-111 62l72 98q36-33 75-51t90-18q43 0 72.5 12t47 33 25 50.5 7.5 65.5v35h-2q-26-35-69-52.5t-88-17.5q-54 0-98 19.5t-75.5 52.5-48.5 78-17 96q0 53 16 99t47 80 74.5 53.5 99.5 19.5q51 0 95-20t70-64h2v72h114zM306 384q-32 0-58-10.5t-44.5-29-29-45-10.5-58.5q0-29 10.5-54t29.5-44 45-30 56-11q33 0 59.5 11t45 29.5 28.5 44.5 10 56q0 63-38 102t-104 39zM240 636q0 29 21.5 50.5t54.5 21.5 55.5-20.5 22.5-51.5-22.5-51.5-55.5-20.5-54.5 21.5-21.5 50.5z" glyph-name="gdotaccent" horiz-adv-x="630" unicode="&#x121;"/><glyph d="M708 52q-131-70-293-70-82 0-150.5 26.5t-118 75-77.5 116.5-28 151q0 85 28 154.5t77.5 118.5 118 75.5 150.5 26.5q81 0 152-19.5t127-69.5l-93-94q-34 33-82.5 51t-102.5 18q-55 0-99.5-19.5t-76.5-54-49.5-80.5-17.5-99q0-57 17.5-105t49.5-83 76.5-55 99.5-20q48 0 90.5 9t75.5 28v167h-145v114h271v-362zM379-60h122l-85-198h-107z" glyph-name="Gcommaaccent" horiz-adv-x="778" unicode="&#x122;"/><glyph d="M562 480v-437q0-65-16-117.5t-49.5-89-84.5-56.5-121-20q-67 0-127 17t-111 62l72 98q36-33 75-51t90-18q43 0 72.5 12t47 33 25 50.5 7.5 65.5v35h-2q-26-35-69-52.5t-88-17.5q-54 0-98 19.5t-75.5 52.5-48.5 78-17 96q0 53 16 99t47 80 74.5 53.5 99.5 19.5q51 0 95-20t70-64h2v72h114zM306 384q-32 0-58-10.5t-44.5-29-29-45-10.5-58.5q0-29 10.5-54t29.5-44 45-30 56-11q33 0 59.5 11t45 29.5 28.5 44.5 10 56q0 63-38 102t-104 39zM357 584h-122l85 198h107z" glyph-name="gcommaaccent" horiz-adv-x="630" unicode="&#x123;"/><glyph d="M79 708h126v-282h331v282h126v-708h-126v312h-331v-312h-126v708zM438 756l-69 90-69-90h-112l115 144h135l114-144h-114z" glyph-name="Hcircumflex" horiz-adv-x="741" unicode="&#x124;"/><glyph d="M188 413h2q14 30 49.5 54.5t91.5 24.5q48 0 81.5-16t54.5-42 30-60 9-71v-303h-120v243q0 20-2 44.5t-10.5 46-26.5 36-49 14.5q-30 0-50.5-10t-34-27-19.5-39-6-46v-262h-120v756h120v-343zM358 796l-69 90-69-90h-112l115 144h135l114-144h-114z" glyph-name="hcircumflex" unicode="&#x125;"/><glyph d="M79 708h126v-89h331v89h126v-708h-126v312h-331v-312h-126v708zM536 426v115h-331v-115h331z" glyph-name="Hbar" horiz-adv-x="741" unicode="&#x126;"/><glyph d="M317 565h-129v-152h2q14 30 49 54.5t92 24.5q48 0 81.5-16t54.5-42 30-60 9-71v-303h-120v243q0 20-2 44.5t-10.5 46-26.5 36-49 14.5q-30 0-50.5-10t-34-27-19.5-39-6-46v-262h-120v565h-71v78h71v113h120v-113h129v-78z" glyph-name="hbar" unicode="&#x127;"/><glyph d="M76 708h126v-708h-126v708zM-44 760q4 24 11.5 47t20.5 40.5 32.5 28.5 47.5 11q20 0 40.5-6t39.5-12.5 35.5-12.5 28.5-6q20 0 30.5 12.5t15.5 29.5h66q-4-24-11.5-47t-20.5-40.5-32.5-28.5-47.5-11q-20 0-40.5 6t-39.5 13-35.5 13-28.5 6q-20 0-30.5-13t-15.5-30h-66z" glyph-name="Itilde" horiz-adv-x="278" unicode="&#x128;"/><glyph d="M70 480h120v-480h-120v480zM-52 568q4 24 11.5 47t20.5 40.5 32.5 28.5 47.5 11q20 0 40.5-6t39.5-12.5 35.5-12.5 28.5-6q20 0 30.5 12.5t15.5 29.5h66q-4-24-11.5-47t-20.5-40.5-32.5-28.5-47.5-11q-20 0-40.5 6t-39.5 13-35.5 13-28.5 6q-20 0-30.5-13t-15.5-30h-66z" glyph-name="itilde" horiz-adv-x="260" unicode="&#x129;"/><glyph d="M76 708h126v-708h-126v708zM298 787h-320v78h320v-78z" glyph-name="Imacron" horiz-adv-x="278" unicode="&#x12a;"/><glyph d="M70 480h120v-480h-120v480zM292 595h-320v78h320v-78z" glyph-name="imacron" horiz-adv-x="260" unicode="&#x12b;"/><glyph d="M76 708h126v-708h-126v708zM36 902q7-38 36-52t67-14q43 0 68 12t36 54h66q-8-74-53.5-109t-117.5-35-118 34.5-51 109.5h67z" glyph-name="Ibreve" horiz-adv-x="278" unicode="&#x12c;"/><glyph d="M70 480h120v-480h-120v480zM27 675q7-38 36-52t67-14q43 0 68 12t36 54h66q-8-74-53.5-109t-117.5-35-118 34.5-51 109.5h67z" glyph-name="ibreve" horiz-adv-x="260" unicode="&#x12d;"/><glyph d="M76 708h126v-708h-36q-12-11-25-25.5t-24.5-31-19-33.5-7.5-32q0-19 13.5-32.5t32.5-13.5q14 0 28.5 6t25.5 15l25-49q-21-17-46.5-27.5t-53.5-10.5q-20 0-38.5 5.5t-33 17-23 28-8.5 38.5q0 20 8.5 40.5t22 39.5 29.5 35.5 32 29.5h-28v708z" glyph-name="Iogonek" horiz-adv-x="278" unicode="&#x12e;"/><glyph d="M70 480h120v-480h-58q-12-11-25-25.5t-24.5-31-19-33.5-7.5-32q0-19 13.5-32.5t32.5-13.5q14 0 28.5 6t25.5 15l25-49q-21-17-46.5-27.5t-53.5-10.5q-20 0-38.5 5.5t-33 17-23 28-8.5 38.5q0 20 8.5 40.5t22 39.5 29.5 35.5 32 29.5v480zM53 643q0 29 21.5 50.5t54.5 21.5 55.5-20.5 22.5-51.5-22.5-51.5-55.5-20.5-54.5 21.5-21.5 50.5z" glyph-name="iogonek" horiz-adv-x="260" unicode="&#x12f;"/><glyph d="M76 708h126v-708h-126v708zM63 828q0 29 21.5 50.5t54.5 21.5 55.5-20.5 22.5-51.5-22.5-51.5-55.5-20.5-54.5 21.5-21.5 50.5z" glyph-name="Idotaccent" horiz-adv-x="278" unicode="&#x130;"/><glyph d="M70 480h120v-480h-120v480z" glyph-name="dotlessi" horiz-adv-x="260" unicode="&#x131;"/><glyph d="M426 196q0-42-13.5-81t-40-68.5-66.5-47-93-17.5q-84 0-137.5 39t-70.5 124l118 28q6-35 28.5-56t55.5-21q54 0 73.5 36.5t19.5 100.5v475h126v-512zM432 756l-69 90-69-90h-112l115 144h135l114-144h-114z" glyph-name="Jcircumflex" horiz-adv-x="500" unicode="&#x134;"/><glyph d="M190 480v-509q0-45-6-83.5t-23.5-67-49.5-44.5-83-16q-17 0-33 2t-32 7l9 104q10-2 19-3.5t19-1.5q22 0 34.5 9.5t18 24.5 6.5 33 1 35v510h120zM198 564l-69 90-69-90h-112l115 144h135l114-144h-114z" glyph-name="jcircumflex" horiz-adv-x="260" unicode="&#x135;"/><glyph d="M79 708h126v-300h6l293 300h170l-331-327 353-381h-177l-307 348h-7v-348h-126v708zM282-60h122l-85-198h-107z" glyph-name="Kcommaaccent" horiz-adv-x="685" unicode="&#x136;"/><glyph d="M68 756h120v-475l185 199h154l-206-218 219-262h-159l-191 245h-2v-245h-120v756zM212-60h122l-85-198h-107z" glyph-name="kcommaaccent" horiz-adv-x="537" unicode="&#x137;"/><glyph d="M79 708h126v-594h301v-114h-427v708zM164 900h136l-141-144h-94z" glyph-name="Lacute" horiz-adv-x="519" unicode="&#x139;"/><glyph d="M70 756h120v-756h-120v756zM153 940h136l-141-144h-94z" glyph-name="lacute" horiz-adv-x="260" unicode="&#x13a;"/><glyph d="M79 708h126v-594h301v-114h-427v708zM227-60h122l-85-198h-107z" glyph-name="Lcommaaccent" horiz-adv-x="519" unicode="&#x13b;"/><glyph d="M70 756h120v-756h-120v756zM88-60h122l-85-198h-107z" glyph-name="lcommaaccent" horiz-adv-x="260" unicode="&#x13c;"/><glyph d="M79 708h126v-594h301v-114h-427v708zM318 708h122l-85-198h-97z" glyph-name="Lcaron" horiz-adv-x="519" unicode="&#x13d;"/><glyph d="M70 756h120v-756h-120v756zM307 708h122l-85-198h-97z" glyph-name="lcaron" horiz-adv-x="260" unicode="&#x13e;"/><glyph d="M79 708h126v-594h301v-114h-427v708zM336 379q0 29 21.5 50.5t54.5 21.5 55.5-20.5 22.5-51.5-22.5-51.5-55.5-20.5-54.5 21.5-21.5 50.5z" glyph-name="Ldot" horiz-adv-x="519" unicode="&#x13f;"/><glyph d="M70 756h120v-756h-120v756zM242 380q0 29 21.5 50.5t54.5 21.5 55.5-20.5 22.5-51.5-22.5-51.5-55.5-20.5-54.5 21.5-21.5 50.5z" glyph-name="ldot" horiz-adv-x="384" unicode="&#x140;"/><glyph d="M79 187l-70-62v110l70 62v411h126v-300l206 181v-109l-206-182v-184h301v-114h-427v187z" glyph-name="Lslash" horiz-adv-x="519" unicode="&#x141;"/><glyph d="M70 273l-69-69v109l69 69v374h120v-255l69 69v-107l-69-68v-395h-120v273z" glyph-name="lslash" horiz-adv-x="260" unicode="&#x142;"/><glyph d="M79 708h167l343-526h2v526h126v-708h-160l-350 543h-2v-543h-126v708zM443 900h136l-141-144h-94z" glyph-name="Nacute" horiz-adv-x="796" unicode="&#x143;"/><glyph d="M68 480h114v-77h2q17 36 52 62.5t95 26.5q48 0 81.5-16t54.5-42 30-60 9-71v-303h-120v243q0 20-2 44.5t-10.5 46-26.5 36-49 14.5q-30 0-50.5-10t-34-27-19.5-39-6-46v-262h-120v480zM309 708h136l-141-144h-94z" glyph-name="nacute" unicode="&#x144;"/><glyph d="M79 708h167l343-526h2v526h126v-708h-160l-350 543h-2v-543h-126v708zM331-60h122l-85-198h-107z" glyph-name="Ncommaaccent" horiz-adv-x="796" unicode="&#x145;"/><glyph d="M68 480h114v-77h2q17 36 52 62.5t95 26.5q48 0 81.5-16t54.5-42 30-60 9-71v-303h-120v243q0 20-2 44.5t-10.5 46-26.5 36-49 14.5q-30 0-50.5-10t-34-27-19.5-39-6-46v-262h-120v480zM230-60h122l-85-198h-107z" glyph-name="ncommaaccent" unicode="&#x146;"/><glyph d="M79 708h167l343-526h2v526h126v-708h-160l-350 543h-2v-543h-126v708zM330 900l69-90 69 90h110l-115-144h-133l-114 144h114z" glyph-name="Ncaron" horiz-adv-x="796" unicode="&#x147;"/><glyph d="M68 480h114v-77h2q17 36 52 62.5t95 26.5q48 0 81.5-16t54.5-42 30-60 9-71v-303h-120v243q0 20-2 44.5t-10.5 46-26.5 36-49 14.5q-30 0-50.5-10t-34-27-19.5-39-6-46v-262h-120v480zM225 708l69-90 69 90h110l-115-144h-133l-114 144h114z" glyph-name="ncaron" unicode="&#x148;"/><glyph d="M41 351q0 85 28 154.5t77.5 118.5 118 75.5 150.5 26.5q83 1 152-24.5t119-74.5 78-118 28-154q0-83-28-151t-78-117-119-76.5-152-28.5q-82 0-150.5 26.5t-118 75-77.5 116.5-28 151zM173 359q0-57 17.5-105t49.5-83 76.5-55 99.5-20 100 20 77 55 49.5 83 17.5 105q0 53-17.5 99t-49.5 80.5-77 54-100 19.5-99.5-19.5-76.5-54-49.5-80.5-17.5-99zM575 787h-320v78h320v-78z" glyph-name="Omacron" horiz-adv-x="833" unicode="&#x14c;"/><glyph d="M44 240q0 57 20.5 103.5t55.5 79.5 83 51 102 18 102-18 83-51 55.5-79.5 20.5-103.5-20.5-103.5-55.5-79.5-83-51-102-18-102 18-83 51-55.5 79.5-20.5 103.5zM164 240q0-28 9.5-54t28-46 44.5-32 59-12 59 12 44.5 32 28 46 9.5 54-9.5 54-28 46-44.5 32-59 12-59-12-44.5-32-28-46-9.5-54zM465 595h-320v78h320v-78z" glyph-name="omacron" horiz-adv-x="610" unicode="&#x14d;"/><glyph d="M41 351q0 85 28 154.5t77.5 118.5 118 75.5 150.5 26.5q83 1 152-24.5t119-74.5 78-118 28-154q0-83-28-151t-78-117-119-76.5-152-28.5q-82 0-150.5 26.5t-118 75-77.5 116.5-28 151zM173 359q0-57 17.5-105t49.5-83 76.5-55 99.5-20 100 20 77 55 49.5 83 17.5 105q0 53-17.5 99t-49.5 80.5-77 54-100 19.5-99.5-19.5-76.5-54-49.5-80.5-17.5-99zM312 900q7-38 36-52t67-14q43 0 68 12t36 54h66q-8-75-53.5-109.5t-117.5-34.5-118 34.5-51 109.5h67z" glyph-name="Obreve" horiz-adv-x="833" unicode="&#x14e;"/><glyph d="M44 240q0 57 20.5 103.5t55.5 79.5 83 51 102 18 102-18 83-51 55.5-79.5 20.5-103.5-20.5-103.5-55.5-79.5-83-51-102-18-102 18-83 51-55.5 79.5-20.5 103.5zM164 240q0-28 9.5-54t28-46 44.5-32 59-12 59 12 44.5 32 28 46 9.5 54-9.5 54-28 46-44.5 32-59 12-59-12-44.5-32-28-46-9.5-54zM204 708q7-38 36-52t67-14q43 0 68 12t36 54h66q-8-74-53.5-109t-117.5-35-118 34.5-51 109.5h67z" glyph-name="obreve" horiz-adv-x="610" unicode="&#x14f;"/><glyph d="M41 351q0 85 28 154.5t77.5 118.5 118 75.5 150.5 26.5q83 1 152-24.5t119-74.5 78-118 28-154q0-83-28-151t-78-117-119-76.5-152-28.5q-82 0-150.5 26.5t-118 75-77.5 116.5-28 151zM173 359q0-57 17.5-105t49.5-83 76.5-55 99.5-20 100 20 77 55 49.5 83 17.5 105q0 53-17.5 99t-49.5 80.5-77 54-100 19.5-99.5-19.5-76.5-54-49.5-80.5-17.5-99zM363 900h136l-141-144h-94zM568 900h136l-141-144h-94z" glyph-name="Ohungarumlaut" horiz-adv-x="833" unicode="&#x150;"/><glyph d="M44 240q0 57 20.5 103.5t55.5 79.5 83 51 102 18 102-18 83-51 55.5-79.5 20.5-103.5-20.5-103.5-55.5-79.5-83-51-102-18-102 18-83 51-55.5 79.5-20.5 103.5zM164 240q0-28 9.5-54t28-46 44.5-32 59-12 59 12 44.5 32 28 46 9.5 54-9.5 54-28 46-44.5 32-59 12-59-12-44.5-32-28-46-9.5-54zM243 708h136l-141-144h-94zM448 708h136l-141-144h-94z" glyph-name="ohungarumlaut" horiz-adv-x="610" unicode="&#x151;"/><glyph d="M645 420h270v-114h-270v-192h305v-114h-497q-96 0-170.5 27t-126.5 75-79 112.5-27 139.5q0 76 27 140.5t79 112 126.5 74.5 170.5 27h480v-114h-288v-174zM519 594h-63q-23 0-52-4.5t-58.5-15-58-28-50.5-44-35.5-63.5-13.5-85 13.5-85 35.5-63.5 50.5-44 58-28 58.5-15 52-4.5h63v480z" glyph-name="OE" horiz-adv-x="1000" unicode="&#x152;"/><glyph d="M540 204q-1-27 10-49t28.5-38 38.5-24.5 40-8.5q45 0 75 18.5t53 46.5l83-59q-40-56-92.5-79t-118.5-23q-60 0-105 20t-73 57q-36-40-82.5-58.5t-99.5-18.5q-54 0-102 18t-83 51-55.5 79.5-20.5 103.5 20.5 103.5 55.5 79.5 83 51 102 18 101-19 83-59q32 40 78 59t100 19q58 0 101.5-20t72.5-54.5 43-81 14-99.5v-33h-350zM770 288q-1 53-32 83.5t-79 30.5q-21 0-43-7.5t-39.5-21.5-28.5-35.5-12-49.5h234zM156 240q0-30 9.5-57.5t28-48 44.5-32.5 59-12q34 0 60.5 12t45 32.5 28 48 9.5 57.5-9.5 57.5-28 48-45 32.5-60.5 12q-33 0-59-12t-44.5-32.5-28-48-9.5-57.5z" glyph-name="oe" horiz-adv-x="926" unicode="&#x153;"/><glyph d="M79 708h246q51 0 98.5-9.5t84.5-32.5 59-62 22-99q0-77-42.5-129t-121.5-63l188-313h-152l-164 300h-92v-300h-126v708zM303 408q27 0 54 2.5t49.5 12 36.5 29 14 54.5q0 31-13 50t-34 28.5-46.5 12.5-49.5 3h-109v-192h98zM309 900h136l-141-144h-94z" glyph-name="Racute" horiz-adv-x="630" unicode="&#x154;"/><glyph d="M68 480h120v-76h2q20 42 57 65t85 23q11 0 21.5-2t21.5-5v-116q-15 4-29.5 6.5t-28.5 2.5q-42 0-67.5-15.5t-39-35.5-18-40-4.5-30v-257h-120v480zM232 708h136l-141-144h-94z" glyph-name="racute" horiz-adv-x="389" unicode="&#x155;"/><glyph d="M79 708h246q51 0 98.5-9.5t84.5-32.5 59-62 22-99q0-77-42.5-129t-121.5-63l188-313h-152l-164 300h-92v-300h-126v708zM303 408q27 0 54 2.5t49.5 12 36.5 29 14 54.5q0 31-13 50t-34 28.5-46.5 12.5-49.5 3h-109v-192h98zM241-60h122l-85-198h-107z" glyph-name="Rcommaaccent" horiz-adv-x="630" unicode="&#x156;"/><glyph d="M68 480h120v-76h2q20 42 57 65t85 23q11 0 21.5-2t21.5-5v-116q-15 4-29.5 6.5t-28.5 2.5q-42 0-67.5-15.5t-39-35.5-18-40-4.5-30v-257h-120v480zM133-60h122l-85-198h-107z" glyph-name="rcommaaccent" horiz-adv-x="389" unicode="&#x157;"/><glyph d="M79 708h246q51 0 98.5-9.5t84.5-32.5 59-62 22-99q0-77-42.5-129t-121.5-63l188-313h-152l-164 300h-92v-300h-126v708zM303 408q27 0 54 2.5t49.5 12 36.5 29 14 54.5q0 31-13 50t-34 28.5-46.5 12.5-49.5 3h-109v-192h98zM249 900l69-90 69 90h110l-115-144h-133l-114 144h114z" glyph-name="Rcaron" horiz-adv-x="630" unicode="&#x158;"/><glyph d="M68 480h120v-76h2q20 42 57 65t85 23q11 0 21.5-2t21.5-5v-116q-15 4-29.5 6.5t-28.5 2.5q-42 0-67.5-15.5t-39-35.5-18-40-4.5-30v-257h-120v480zM141 708l69-90 69 90h110l-115-144h-133l-114 144h114z" glyph-name="rcaron" horiz-adv-x="389" unicode="&#x159;"/><glyph d="M426 556q-20 29-53.5 42.5t-70.5 13.5q-22 0-42.5-5t-37-16-26.5-28.5-10-41.5q0-36 25-55t62-33 81-27 81-36 62-61 25-101q0-57-21-99.5t-56.5-70.5-82.5-42-99-14q-66 0-127 22t-105 74l95 92q23-35 60.5-54.5t79.5-19.5q22 0 44 6t40 18 29 30.5 11 42.5q0 39-25 60t-62 35.5-81 27.5-81 35.5-62 60-25 100.5q0 55 22.5 95t59 66.5 83.5 39.5 96 13q56 0 108.5-17t94.5-56zM332 900h136l-141-144h-94z" glyph-name="Sacute" unicode="&#x15a;"/><glyph d="M324 347q-35 49-94 49-24 0-47-12t-23-39q0-22 19-32t48-17 62.5-14.5 62.5-23 48-42.5 19-74q0-43-18.5-72.5t-48-47.5-66.5-26-74-8q-56 0-103 16t-84 58l80 75q23-26 49.5-42.5t64.5-16.5q13 0 27 3t26 10 19.5 17.5 7.5 24.5q0 25-19 37t-48 19.5-62.5 14-62.5 21-48 40.5-19 72q0 40 16.5 69.5t43.5 48.5 62 28 71 9q48 0 95-16.5t76-56.5zM256 708h136l-141-144h-94z" glyph-name="sacute" horiz-adv-x="444" unicode="&#x15b;"/><glyph d="M426 556q-20 29-53.5 42.5t-70.5 13.5q-22 0-42.5-5t-37-16-26.5-28.5-10-41.5q0-36 25-55t62-33 81-27 81-36 62-61 25-101q0-57-21-99.5t-56.5-70.5-82.5-42-99-14q-66 0-127 22t-105 74l95 92q23-35 60.5-54.5t79.5-19.5q22 0 44 6t40 18 29 30.5 11 42.5q0 39-25 60t-62 35.5-81 27.5-81 35.5-62 60-25 100.5q0 55 22.5 95t59 66.5 83.5 39.5 96 13q56 0 108.5-17t94.5-56zM370 756l-69 90-69-90h-112l115 144h135l114-144h-114z" glyph-name="Scircumflex" unicode="&#x15c;"/><glyph d="M324 347q-35 49-94 49-24 0-47-12t-23-39q0-22 19-32t48-17 62.5-14.5 62.5-23 48-42.5 19-74q0-43-18.5-72.5t-48-47.5-66.5-26-74-8q-56 0-103 16t-84 58l80 75q23-26 49.5-42.5t64.5-16.5q13 0 27 3t26 10 19.5 17.5 7.5 24.5q0 25-19 37t-48 19.5-62.5 14-62.5 21-48 40.5-19 72q0 40 16.5 69.5t43.5 48.5 62 28 71 9q48 0 95-16.5t76-56.5zM304 564l-69 90-69-90h-112l115 144h135l114-144h-114z" glyph-name="scircumflex" horiz-adv-x="444" unicode="&#x15d;"/><glyph d="M426 556q-20 29-53.5 42.5t-70.5 13.5q-22 0-42.5-5t-37-16-26.5-28.5-10-41.5q0-36 25-55t62-33 81-27 81-36 62-61 25-101q0-51-17-90.5t-46-67-68.5-44-84.5-21.5l-31-45q22 0 43.5-2t39-10.5 28-25 10.5-45.5q0-27-13.5-46t-33.5-30-45-16-47-5q-57 0-106 28l22 46q38-20 82-20 8 0 18 2t18.5 6.5 14.5 13 6 20.5q0 20-17.5 28t-33.5 8q-10 0-19-2t-18-5l-27 25 50 72q-63 2-118.5 24.5t-97.5 71.5l95 92q23-35 60.5-54.5t79.5-19.5q22 0 44 6t40 18 29 30.5 11 42.5q0 39-25 60t-62 35.5-81 27.5-81 35.5-62 60-25 100.5q0 55 22.5 95t59 66.5 83.5 39.5 96 13q57 0 109-17t94-56z" glyph-name="Scedilla" unicode="&#x15e;"/><glyph d="M324 347q-34 49-94 49-24 0-47-12t-23-39q0-22 19-32t48-17 62.5-14.5 62.5-23 48-42.5 19-74q0-36-13-62t-35-44.5-50.5-29-59.5-14.5l-36-52q22 0 43.5-2t39-10.5 28-25 10.5-45.5q0-27-13.5-46t-33.5-30-45-16-47-5q-57 0-106 28l22 46q38-20 82-20 8 0 18 2t18.5 6.5 14.5 13 6 20.5q0 20-17.5 28t-33.5 8q-10 0-19-2t-18-5l-27 25 53 78q-52 2-96 18.5t-79 55.5l80 75q23-26 49.5-42.5t64.5-16.5q13 0 27 3t26 10 19.5 17.5 7.5 24.5q0 25-19 37t-48 19.5-62.5 14-62.5 21-48 40.5-19 72q0 40 16.5 69.5t43.5 48.5 62 28 71 9q48 0 95-16.5t76-56.5z" glyph-name="scedilla" horiz-adv-x="444" unicode="&#x15f;"/><glyph d="M426 556q-20 29-53.5 42.5t-70.5 13.5q-22 0-42.5-5t-37-16-26.5-28.5-10-41.5q0-36 25-55t62-33 81-27 81-36 62-61 25-101q0-57-21-99.5t-56.5-70.5-82.5-42-99-14q-66 0-127 22t-105 74l95 92q23-35 60.5-54.5t79.5-19.5q22 0 44 6t40 18 29 30.5 11 42.5q0 39-25 60t-62 35.5-81 27.5-81 35.5-62 60-25 100.5q0 55 22.5 95t59 66.5 83.5 39.5 96 13q56 0 108.5-17t94.5-56zM220 900l69-90 69 90h110l-115-144h-133l-114 144h114z" glyph-name="Scaron" unicode="&#x160;"/><glyph d="M324 347q-35 49-94 49-24 0-47-12t-23-39q0-22 19-32t48-17 62.5-14.5 62.5-23 48-42.5 19-74q0-43-18.5-72.5t-48-47.5-66.5-26-74-8q-56 0-103 16t-84 58l80 75q23-26 49.5-42.5t64.5-16.5q13 0 27 3t26 10 19.5 17.5 7.5 24.5q0 25-19 37t-48 19.5-62.5 14-62.5 21-48 40.5-19 72q0 40 16.5 69.5t43.5 48.5 62 28 71 9q48 0 95-16.5t76-56.5zM155 708l69-90 69 90h110l-115-144h-133l-114 144h114z" glyph-name="scaron" horiz-adv-x="444" unicode="&#x161;"/><glyph d="M224 594h-217v114h560v-114h-217v-594h-126v594zM264-60q22 0 43.5-2t39-10.5 28-25 10.5-45.5q0-27-13.5-46t-33.5-30-45-16-47-5q-56 0-106 28l22 46q38-20 82-20 8 0 18 2t18.5 6.5 14.5 13 6 20.5q0 20-17.5 28t-33.5 8q-10 0-19-2t-18-5l-27 25 62 90h58z" glyph-name="Tcedilla" unicode="&#x162;"/><glyph d="M12 378v102h99v139h120v-139h132v-102h-132v-210q0-36 13.5-57t53.5-21q16 0 35 3.5t30 11.5v-101q-19-9-46.5-12.5t-48.5-3.5q-48 0-78.5 10.5t-48 32-24 53.5-6.5 74v220h-99zM224-60q22 0 43.5-2t39-10.5 28-25 10.5-45.5q0-27-13.5-46t-33.5-30-45-16-47-5q-56 0-106 28l22 46q38-20 82-20 8 0 18 2t18.5 6.5 14.5 13 6 20.5q0 20-17.5 28t-33.5 8q-10 0-19-2t-18-5l-27 25 62 90h58z" glyph-name="tcedilla" horiz-adv-x="389" unicode="&#x163;"/><glyph d="M224 594h-217v114h560v-114h-217v-594h-126v594zM220 900l69-90 69 90h110l-115-144h-133l-114 144h114z" glyph-name="Tcaron" unicode="&#x164;"/><glyph d="M12 378v102h99v139h120v-139h132v-102h-132v-210q0-36 13.5-57t53.5-21q16 0 35 3.5t30 11.5v-101q-19-9-46.5-12.5t-48.5-3.5q-48 0-78.5 10.5t-48 32-24 53.5-6.5 74v220h-99zM344 748h122l-85-198h-97z" glyph-name="tcaron" horiz-adv-x="389" unicode="&#x165;"/><glyph d="M500 404h-150v-404h-126v404h-144v78h144v112h-217v114h560v-114h-217v-112h150v-78z" glyph-name="Tbar" unicode="&#x166;"/><glyph d="M336 239h-105v-71q0-36 13.5-57t53.5-21q16 0 35 3.5t30 11.5v-101q-19-9-46.5-12.5t-48.5-3.5q-48 0-78.5 10.5t-48 32-24 53.5-6.5 74v81h-75v78h75v61h-99v102h99v139h120v-139h132v-102h-132v-61h105v-78z" glyph-name="tbar" horiz-adv-x="389" unicode="&#x167;"/><glyph d="M646 260q0-64-22-115.5t-60-87.5-90-55.5-113-19.5-113 19.5-90.5 55.5-60 87.5-21.5 115.5v448h126v-444q0-26 8-54.5t26.5-52.5 49-39.5 75.5-15.5 75.5 15.5 49 39.5 26.5 52.5 8 54.5v444h126v-448zM182 760q4 24 11.5 47t20.5 40.5 32.5 28.5 47.5 11q20 0 40.5-6t39.5-12.5 35.5-12.5 28.5-6q20 0 30.5 12.5t15.5 29.5h66q-4-24-11.5-47t-20.5-40.5-32.5-28.5-47.5-11q-20 0-40.5 6t-39.5 13-35.5 13-28.5 6q-20 0-30.5-13t-15.5-30h-66z" glyph-name="Utilde" horiz-adv-x="722" unicode="&#x168;"/><glyph d="M506 0h-114v77h-2q-17-36-52-62.5t-95-26.5q-48 0-81.5 15.5t-54.5 42-30 60.5-9 71v303h120v-243q0-20 2-44.5t10.5-46 26-36 49.5-14.5q30 0 50.5 10t34 27 19.5 39 6 46v262h120v-480zM106 568q4 24 11.5 47t20.5 40.5 32.5 28.5 47.5 11q20 0 40.5-6t39.5-12.5 35.5-12.5 28.5-6q20 0 30.5 12.5t15.5 29.5h66q-4-24-11.5-47t-20.5-40.5-32.5-28.5-47.5-11q-20 0-40.5 6t-39.5 13-35.5 13-28.5 6q-20 0-30.5-13t-15.5-30h-66z" glyph-name="utilde" unicode="&#x169;"/><glyph d="M646 260q0-64-22-115.5t-60-87.5-90-55.5-113-19.5-113 19.5-90.5 55.5-60 87.5-21.5 115.5v448h126v-444q0-26 8-54.5t26.5-52.5 49-39.5 75.5-15.5 75.5 15.5 49 39.5 26.5 52.5 8 54.5v444h126v-448zM517 787h-320v78h320v-78z" glyph-name="Umacron" horiz-adv-x="722" unicode="&#x16a;"/><glyph d="M506 0h-114v77h-2q-17-36-52-62.5t-95-26.5q-48 0-81.5 15.5t-54.5 42-30 60.5-9 71v303h120v-243q0-20 2-44.5t10.5-46 26-36 49.5-14.5q30 0 50.5 10t34 27 19.5 39 6 46v262h120v-480zM446 595h-320v78h320v-78z" glyph-name="umacron" unicode="&#x16b;"/><glyph d="M646 260q0-64-22-115.5t-60-87.5-90-55.5-113-19.5-113 19.5-90.5 55.5-60 87.5-21.5 115.5v448h126v-444q0-26 8-54.5t26.5-52.5 49-39.5 75.5-15.5 75.5 15.5 49 39.5 26.5 52.5 8 54.5v444h126v-448zM254 900q7-38 36-52t67-14q43 0 68 12t36 54h66q-8-75-53.5-109.5t-117.5-34.5-118 34.5-51 109.5h67z" glyph-name="Ubreve" horiz-adv-x="722" unicode="&#x16c;"/><glyph d="M506 0h-114v77h-2q-17-36-52-62.5t-95-26.5q-48 0-81.5 15.5t-54.5 42-30 60.5-9 71v303h120v-243q0-20 2-44.5t10.5-46 26-36 49.5-14.5q30 0 50.5 10t34 27 19.5 39 6 46v262h120v-480zM186 708q7-38 36-52t67-14q43 0 68 12t36 54h66q-8-74-53.5-109t-117.5-35-118 34.5-51 109.5h67z" glyph-name="ubreve" unicode="&#x16d;"/><glyph d="M646 260q0-64-22-115.5t-60-87.5-90-55.5-113-19.5-113 19.5-90.5 55.5-60 87.5-21.5 115.5v448h126v-444q0-26 8-54.5t26.5-52.5 49-39.5 75.5-15.5 75.5 15.5 49 39.5 26.5 52.5 8 54.5v444h126v-448zM467 837q0-45-30-73.5t-75-28.5-75 28-30 73q0 22 8 41t22 32.5 33 21.5 42 8q45 0 75-28.5t30-73.5zM419 837q0 23-17 38.5t-40 15.5-40-15.5-17-38.5 17-38.5 40-15.5 40 15 17 39z" glyph-name="Uring" horiz-adv-x="722" unicode="&#x16e;"/><glyph d="M506 0h-114v77h-2q-17-36-52-62.5t-95-26.5q-48 0-81.5 15.5t-54.5 42-30 60.5-9 71v303h120v-243q0-20 2-44.5t10.5-46 26-36 49.5-14.5q30 0 50.5 10t34 27 19.5 39 6 46v262h120v-480zM389 655q0-45-30-73.5t-75-28.5-75 28.5-30 72.5q0 22 8 41t22 32.5 33 21.5 42 8q45 0 75-28.5t30-73.5zM341 655q0 23-17 38.5t-40 15.5-40-15.5-17-38.5 17-38.5 40-15.5 40 15 17 39z" glyph-name="uring" unicode="&#x16f;"/><glyph d="M646 260q0-64-22-115.5t-60-87.5-90-55.5-113-19.5-113 19.5-90.5 55.5-60 87.5-21.5 115.5v448h126v-444q0-26 8-54.5t26.5-52.5 49-39.5 75.5-15.5 75.5 15.5 49 39.5 26.5 52.5 8 54.5v444h126v-448zM304 900h136l-141-144h-94zM509 900h136l-141-144h-94z" glyph-name="Uhungarumlaut" horiz-adv-x="722" unicode="&#x170;"/><glyph d="M506 0h-114v77h-2q-17-36-52-62.5t-95-26.5q-48 0-81.5 15.5t-54.5 42-30 60.5-9 71v303h120v-243q0-20 2-44.5t10.5-46 26-36 49.5-14.5q30 0 50.5 10t34 27 19.5 39 6 46v262h120v-480zM224 708h136l-141-144h-94zM429 708h136l-141-144h-94z" glyph-name="uhungarumlaut" unicode="&#x171;"/><glyph d="M476-196q-21-17-46.5-27.5t-53.5-10.5q-20 0-38.5 5.5t-33 17-23 28-8.5 38.5q0 34 22 68t50 60q-58 3-107 23.5t-85 56-56.5 85.5-20.5 112v448h126v-444q0-26 8-54.5t26.5-52.5 49-39.5 75.5-15.5 75.5 15.5 49 39.5 26.5 52.5 8 54.5v444h126v-448q0-57-17.5-104.5t-48.5-82.5-74-57.5-94-29.5q-11-11-22-24.5t-19.5-27.5-14-28.5-5.5-27.5q0-19 13.5-32.5t32.5-13.5q14 0 28.5 6t25.5 15z" glyph-name="Uogonek" horiz-adv-x="722" unicode="&#x172;"/><glyph d="M503-196q-21-17-46.5-27.5t-53.5-10.5q-20 0-38.5 5.5t-33 17-23 28-8.5 38.5q0 20 8.5 40.5t22 39.5 29.5 35.5 32 29.5v77h-2q-17-36-52-62.5t-95-26.5q-48 0-81.5 15.5t-54.5 42-30 60.5-9 71v303h120v-243q0-20 2-44.5t10.5-46 26-36 49.5-14.5q30 0 50.5 10t34 27 19.5 39 6 46v262h120v-480h-52q-12-11-25-25.5t-24.5-31-19-33.5-7.5-32q0-19 13.5-32.5t32.5-13.5q14 0 28.5 6t25.5 15z" glyph-name="uogonek" unicode="&#x173;"/><glyph d="M0 708h138l133-510h2l159 510h124l156-510h2l139 510h128l-206-708h-120l-164 539h-2l-164-539h-116zM559 756l-69 90-69-90h-112l115 144h135l114-144h-114z" glyph-name="Wcircumflex" horiz-adv-x="981" unicode="&#x174;"/><glyph d="M3 480h130l104-336h2l97 336h130l104-336h2l100 336h121l-163-480h-119l-114 328h-2l-101-328h-124zM464 564l-69 90-69-90h-112l115 144h135l114-144h-114z" glyph-name="wcircumflex" horiz-adv-x="796" unicode="&#x175;"/><glyph d="M252 303l-266 405h158l174-282 176 282h150l-266-405v-303h-126v303zM386 756l-69 90-69-90h-112l115 144h135l114-144h-114z" glyph-name="Ycircumflex" horiz-adv-x="630" unicode="&#x176;"/><glyph d="M3 480h132l134-333h2l120 333h125l-227-583q-13-34-28.5-59.5t-36.5-43-49.5-26-68.5-8.5q-47 0-92 12l15 108q14-5 29.5-8.5t31.5-3.5q22 0 37 4t25.5 12.5 17.5 22 15 32.5l23 57zM337 564l-69 90-69-90h-112l115 144h135l114-144h-114z" glyph-name="ycircumflex" horiz-adv-x="519" unicode="&#x177;"/><glyph d="M252 303l-266 405h158l174-282 176 282h150l-266-405v-303h-126v303zM135 828q0 29 21.5 50.5t54.5 21.5 55.5-20.5 22.5-51.5-22.5-51.5-55.5-20.5-54.5 21.5-21.5 50.5zM341 828q0 29 21.5 50.5t54.5 21.5 55.5-20.5 22.5-51.5-22.5-51.5-55.5-20.5-54.5 21.5-21.5 50.5z" glyph-name="Ydieresis" horiz-adv-x="630" unicode="&#x178;"/><glyph d="M35 114l378 480h-372v114h529v-114l-381-480h387v-114h-541v114zM340 900h136l-141-144h-94z" glyph-name="Zacute" horiz-adv-x="611" unicode="&#x179;"/><glyph d="M34 111l257 271v2h-245v96h390v-109l-260-275h272v-96h-414v111zM274 708h136l-141-144h-94z" glyph-name="zacute" horiz-adv-x="482" unicode="&#x17a;"/><glyph d="M35 114l378 480h-372v114h529v-114l-381-480h387v-114h-541v114zM252 828q0 29 21.5 50.5t54.5 21.5 55.5-20.5 22.5-51.5-22.5-51.5-55.5-20.5-54.5 21.5-21.5 50.5z" glyph-name="Zdotaccent" horiz-adv-x="611" unicode="&#x17b;"/><glyph d="M34 111l257 271v2h-245v96h390v-109l-260-275h272v-96h-414v111zM185 636q0 29 21.5 50.5t54.5 21.5 55.5-20.5 22.5-51.5-22.5-51.5-55.5-20.5-54.5 21.5-21.5 50.5z" glyph-name="zdotaccent" horiz-adv-x="482" unicode="&#x17c;"/><glyph d="M35 114l378 480h-372v114h529v-114l-381-480h387v-114h-541v114zM239 900l69-90 69 90h110l-115-144h-133l-114 144h114z" glyph-name="Zcaron" horiz-adv-x="611" unicode="&#x17d;"/><glyph d="M34 111l257 271v2h-245v96h390v-109l-260-275h272v-96h-414v111zM174 708l69-90 69 90h110l-115-144h-133l-114 144h114z" glyph-name="zcaron" horiz-adv-x="482" unicode="&#x17e;"/><glyph d="M480 336h-138l-57-288q-19-96-64-141.5t-123-45.5q-26 0-52.5 6t-49.5 18l45 92q10-7 22.5-10.5t24.5-3.5q39 0 55 29.5t25 74.5l53 269h-113v90h131l22 111q7 37 20 70.5t34 58.5 51.5 39.5 74.5 14.5q32 0 60.5-8t56.5-23l-46-93q-27 16-55 16-22 0-36-9.5t-23-24-13.5-32.5-8.5-36l-18-84h122v-90z" glyph-name="florin" horiz-adv-x="592" unicode="&#x192;"/><glyph d="M41 351q0 85 28 154.5t77.5 118.5 118 75.5 150.5 26.5q83 1 152-25 58-21 103-60 36 3 51.5 22.5t15.5 53.5q0 17-5 34t-13 29l114 29q10-19 14.5-38t4.5-47q0-75-30.5-111t-89.5-42q18-29 32-62 28-69 28-154 0-83-28-151t-78-117-119-76.5-152-28.5q-82 0-150.5 26.5t-118 75-77.5 116.5-28 151zM173 359q0-57 17.5-105t49.5-83 76.5-55 99.5-20 100 20 77 55 49.5 83 17.5 105q0 53-17.5 99t-49.5 80.5-77 54-100 19.5-99.5-19.5-76.5-54-49.5-80.5-17.5-99z" glyph-name="Ohorn" horiz-adv-x="886" unicode="&#x1a0;"/><glyph d="M44 240q0 57 20.5 103.5t55.5 79.5 83 51 102 18 102-18q15-6 29-13 41 2 58 21.5t17 54.5q0 17-5 34t-13 29l114 29q10-19 14.5-38t4.5-47q0-71-27.5-107.5t-81.5-44.5q17-22 28-49 21-46 21-103t-20.5-103.5-55.5-79.5-83-51-102-18-102 18-83 51-55.5 79.5-20.5 103.5zM164 240q0-28 9.5-54t28-46 44.5-32 59-12 59 12 44.5 32 28 46 9.5 54-9.5 54-28 46-44.5 32-59 12-59-12-44.5-32-28-46-9.5-54z" glyph-name="ohorn" horiz-adv-x="655" unicode="&#x1a1;"/><glyph d="M646 637v-377q0-64-22-115.5t-60-87.5-90-55.5-113-19.5-113 19.5-90.5 55.5-60 87.5-21.5 115.5v448h126v-444q0-26 8-54.5t26.5-52.5 49-39.5 75.5-15.5 75.5 15.5 49 39.5 26.5 52.5 8 54.5v444h88q45 0 63 19.5t18 56.5q0 17-5 34t-13 29l114 29q10-19 14.5-38t4.5-47q0-78-33.5-114t-97.5-40h-27z" glyph-name="Uhorn" horiz-adv-x="831" unicode="&#x1af;"/><glyph d="M506 0h-114v77h-2q-17-36-52-62.5t-95-26.5q-48 0-81.5 15.5t-54.5 42-30 60.5-9 71v303h120v-243q0-20 2-44.5t10.5-46 26-36 49.5-14.5q30 0 50.5 10t34 27 19.5 39 6 46v262h82q45 0 63 19.5t18 56.5q0 17-5 34t-13 29l114 29q10-19 14.5-38t4.5-47q0-78-33.5-114t-97.5-40h-27v-409z" glyph-name="uhorn" horiz-adv-x="697" unicode="&#x1b0;"/><glyph d="M162 750v-1000h-102v1000h102z" glyph-name="clickdental" horiz-adv-x="222" unicode="&#x1c0;"/><glyph d="M162 750v-1000h-102v1000h102zM384 750v-1000h-102v1000h102z" glyph-name="clicklateral" horiz-adv-x="444" unicode="&#x1c1;"/><glyph d="M208 222h-120v486h120v-486zM68 70q0 32 23.5 55t56.5 23q32 0 56-22t24-54-23.5-55-56.5-23q-16 0-30.5 6t-25.5 16-17.5 24-6.5 30z" glyph-name="clickretroflex" horiz-adv-x="296" unicode="&#x1c3;"/><glyph d="M79 708h279q70 0 135-21.5t115-65.5 80-110.5 30-156.5q0-91-34.5-157.5t-89-110-121-65-130.5-21.5h-264v708zM299 114q59 0 111.5 13.5t91.5 42 61.5 74 22.5 110.5q0 64-20 110t-55.5 74.5-84 42-106.5 13.5h-115v-480h94zM794 114l378 480h-372v114h529v-114l-381-480h387v-114h-541v114zM997 902l69-90 69 90h110l-115-144h-133l-114 144h114z" glyph-name="DZcaron" horiz-adv-x="1370" unicode="&#x1c4;"/><glyph d="M79 708h279q70 0 135-21.5t115-65.5 80-110.5 30-156.5q0-91-34.5-157.5t-89-110-121-65-130.5-21.5h-264v708zM299 114q59 0 111.5 13.5t91.5 42 61.5 74 22.5 110.5q0 64-20 110t-55.5 74.5-84 42-106.5 13.5h-115v-480h94zM793 111l257 271v2h-245v96h390v-109l-260-275h272v-96h-414v111zM933 675l69-90 69 90h110l-115-144h-133l-114 144h114z" glyph-name="Dzcaron" horiz-adv-x="1241" unicode="&#x1c5;"/><glyph d="M448 72h-2q-26-44-70-64t-95-20q-56 0-99.5 19.5t-74.5 53.5-47 80-16 99 17 99 47.5 80 73.5 53.5 94 19.5q34 0 60-7t46-18 34-23.5 23-24.5h3v337h120v-756h-114v72zM164 240q0-28 9.5-54t28-46 44.5-32 59-12 59 12 44.5 32 28 46 9.5 54-9.5 54-28 46-44.5 32-59 12-59-12-44.5-32-28-46-9.5-54zM664 111l257 271v2h-245v96h390v-109l-260-275h272v-96h-414v111zM804 675l69-90 69 90h110l-115-144h-133l-114 144h114z" glyph-name="dzcaron" horiz-adv-x="1112" unicode="&#x1c6;"/><glyph d="M79 708h126v-594h301v-114h-427v708zM945 196q0-42-13.5-81t-40-68.5-66.5-47-93-17.5q-84 0-137.5 39t-70.5 124l118 28q6-35 28.5-56t55.5-21q54 0 73.5 36.5t19.5 100.5v475h126v-512z" glyph-name="LJ" horiz-adv-x="1019" unicode="&#x1c7;"/><glyph d="M79 708h126v-594h301v-114h-427v708zM709 480v-509q0-45-6-83.5t-23.5-67-49.5-44.5-83-16q-17 0-33 2t-32 7l9 104q10-2 19-3.5t19-1.5q22 0 34.5 9.5t18 24.5 6.5 33 1 35v510h120zM572 643q0 29 21.5 50.5t54.5 21.5 55.5-20.5 22.5-51.5-22.5-51.5-55.5-20.5-54.5 21.5-21.5 50.5z" glyph-name="Lj" horiz-adv-x="779" unicode="&#x1c8;"/><glyph d="M70 756h120v-756h-120v756zM450 480v-509q0-45-6-83.5t-23.5-67-49.5-44.5-83-16q-17 0-33 2t-32 7l9 104q10-2 19-3.5t19-1.5q22 0 34.5 9.5t18 24.5 6.5 33 1 35v510h120zM313 643q0 29 21.5 50.5t54.5 21.5 55.5-20.5 22.5-51.5-22.5-51.5-55.5-20.5-54.5 21.5-21.5 50.5z" glyph-name="lj" horiz-adv-x="520" unicode="&#x1c9;"/><glyph d="M79 708h167l343-526h2v526h126v-708h-160l-350 543h-2v-543h-126v708zM1222 196q0-42-13.5-81t-40-68.5-66.5-47-93-17.5q-84 0-137.5 39t-70.5 124l118 28q6-35 28.5-56t55.5-21q54 0 73.5 36.5t19.5 100.5v475h126v-512z" glyph-name="NJ" horiz-adv-x="1296" unicode="&#x1ca;"/></font>
</defs>
</svg>
